<svg width="404" height="252" viewBox="0 0 404 252" fill="none" xmlns="http://www.w3.org/2000/svg">
<path d="M67.875 133.844C67.875 131.719 68.1562 129.406 68.7188 126.906C69.3438 124.406 70.1875 121.906 71.25 119.406C72.3125 116.844 73.5938 114.375 75.0938 112C76.5938 109.562 78.2812 107.438 80.1562 105.625C82.0312 103.75 84.0625 102.281 86.25 101.219C88.4375 100.094 90.75 99.5312 93.1875 99.5312C95.1875 99.5312 97.0625 99.8125 98.8125 100.375C100.562 100.875 102.062 101.656 103.312 102.719C104.562 103.781 105.531 105.125 106.219 106.75C106.969 108.312 107.344 110.188 107.344 112.375C105.969 112.375 104.844 112.031 103.969 111.344C103.156 110.594 102.375 109.781 101.625 108.906C100.938 108.031 100.156 107.25 99.2812 106.562C98.4688 105.875 97.4062 105.531 96.0938 105.531C94.1562 105.531 92.2812 106.031 90.4688 107.031C88.7188 108.031 87.0625 109.375 85.5 111.062C84 112.75 82.6562 114.656 81.4688 116.781C80.3438 118.906 79.3438 121.062 78.4688 123.25C77.6562 125.375 77 127.469 76.5 129.531C76.0625 131.594 75.8438 133.375 75.8438 134.875C75.8438 138.125 76.3125 141.188 77.25 144.062C78.25 146.875 79.6562 149.344 81.4688 151.469C83.2812 153.531 85.5312 155.156 88.2188 156.344C90.9062 157.531 93.9688 158.125 97.4062 158.125C99.5938 158.125 101.656 157.812 103.594 157.188C105.594 156.5 107.5 155.781 109.312 155.031C111.188 154.219 113.031 153.469 114.844 152.781C116.656 152.094 118.469 151.75 120.281 151.75C120.531 151.75 120.875 151.781 121.312 151.844C121.812 151.844 122.25 151.906 122.625 152.031C123.062 152.156 123.438 152.375 123.75 152.688C124.062 152.938 124.219 153.344 124.219 153.906C124.219 156.156 123.344 158.062 121.594 159.625C119.906 161.188 117.875 162.469 115.5 163.469C113.125 164.406 110.656 165.094 108.094 165.531C105.531 165.969 103.438 166.188 101.812 166.188C97.0625 166.188 92.625 165.438 88.5 163.938C84.375 162.375 80.7812 160.188 77.7188 157.375C74.6562 154.562 72.25 151.188 70.5 147.25C68.75 143.25 67.875 138.781 67.875 133.844ZM126.281 109.562C126.281 108.562 126.469 107.656 126.844 106.844C127.281 105.969 128.094 105.531 129.281 105.531C130.281 105.531 131.25 106.562 132.188 108.625C133.188 110.688 134.188 113.344 135.188 116.594C136.25 119.781 137.344 123.312 138.469 127.188C139.594 131 140.781 134.719 142.031 138.344C143.281 141.906 144.594 145.125 145.969 148C147.344 150.812 148.812 152.781 150.375 153.906C151.875 153.281 153.062 152.188 153.938 150.625C154.875 149 155.625 147.094 156.188 144.906C156.75 142.656 157.156 140.25 157.406 137.688C157.719 135.062 158 132.469 158.25 129.906C158.562 127.281 158.875 124.75 159.188 122.312C159.5 119.812 159.938 117.625 160.5 115.75C161.125 113.875 161.906 112.375 162.844 111.25C163.781 110.125 164.969 109.562 166.406 109.562C167.281 109.562 168.062 109.656 168.75 109.844C169.438 109.969 170.031 110.594 170.531 111.719C170.781 112.531 171.188 113.719 171.75 115.281C172.312 116.844 172.938 118.656 173.625 120.719C174.375 122.781 175.188 125 176.062 127.375C177 129.688 177.938 131.969 178.875 134.219C179.875 136.469 180.844 138.625 181.781 140.688C182.719 142.688 183.625 144.406 184.5 145.844C184.625 146.094 184.938 146.5 185.438 147.062C186 147.562 186.375 147.844 186.562 147.906L190.594 143.875C191.656 142.812 192.469 141.25 193.031 139.188C193.594 137.062 194 134.625 194.25 131.875C194.562 129.125 194.75 126.188 194.812 123.062C194.938 119.875 195.031 116.719 195.094 113.594C195.156 110.469 195.281 107.438 195.469 104.5C195.656 101.562 195.969 99 196.406 96.8125C196.844 94.5625 197.469 92.7812 198.281 91.4688C199.094 90.1562 200.219 89.5 201.656 89.5C201.719 89.5 201.781 89.5312 201.844 89.5938C201.969 89.5938 202.094 89.5938 202.219 89.5938C202.406 89.6562 202.531 89.6875 202.594 89.6875C202.656 89.6875 202.812 89.8125 203.062 90.0625C203.312 90.25 203.531 90.4375 203.719 90.625C203.969 90.8125 204.156 91 204.281 91.1875C204.469 91.375 204.594 91.5312 204.656 91.6562C204.656 92.0938 204.656 92.875 204.656 94C204.719 95.125 204.75 96.3438 204.75 97.6562C204.75 98.9688 204.75 100.219 204.75 101.406C204.812 102.531 204.844 103.312 204.844 103.75C204.844 105 204.812 106.719 204.75 108.906C204.75 111.094 204.656 113.594 204.469 116.406C204.344 119.156 204.125 122.125 203.812 125.312C203.562 128.438 203.156 131.562 202.594 134.688C202.031 137.75 201.312 140.719 200.438 143.594C199.625 146.406 198.594 148.906 197.344 151.094C196.156 153.219 194.75 154.938 193.125 156.25C191.562 157.5 189.688 158.125 187.5 158.125C185.375 158.125 183.562 157.438 182.062 156.062C180.625 154.625 179.375 152.875 178.312 150.812C177.25 148.688 176.344 146.406 175.594 143.969C174.844 141.469 174.062 139.156 173.25 137.031C172.5 134.906 171.656 133.156 170.719 131.781C169.844 130.344 168.75 129.625 167.438 129.625C167.312 129.625 167.125 129.656 166.875 129.719C166.688 129.781 166.531 129.812 166.406 129.812C166.344 130.062 166.156 131.156 165.844 133.094C165.531 135.031 165.094 137.344 164.531 140.031C163.969 142.656 163.281 145.5 162.469 148.562C161.656 151.625 160.719 154.438 159.656 157C158.656 159.562 157.531 161.719 156.281 163.469C155.094 165.156 153.781 166 152.344 166C149.406 166 146.719 164.906 144.281 162.719C141.844 160.469 139.656 157.594 137.719 154.094C135.844 150.531 134.188 146.594 132.75 142.281C131.312 137.969 130.094 133.75 129.094 129.625C128.156 125.438 127.438 121.562 126.938 118C126.5 114.375 126.281 111.562 126.281 109.562ZM210.469 125.875C210.469 125.125 210.469 123.906 210.469 122.219C210.531 120.469 210.562 118.656 210.562 116.781C210.562 114.844 210.562 113.031 210.562 111.344C210.625 109.656 210.656 108.469 210.656 107.781C210.719 107.344 210.875 106.688 211.125 105.812C211.375 104.875 211.656 103.969 211.969 103.094C212.344 102.219 212.812 101.469 213.375 100.844C214 100.156 214.75 99.8125 215.625 99.8125C217.688 99.8125 219.625 100.375 221.438 101.5C223.25 102.625 225 104.125 226.688 106C228.375 107.812 229.969 109.844 231.469 112.094C233.031 114.344 234.562 116.594 236.062 118.844C237.562 121.031 239.031 123.125 240.469 125.125C241.906 127.062 243.344 128.625 244.781 129.812C246.344 129.125 247.562 127.875 248.438 126.062C249.312 124.188 250.031 122.062 250.594 119.688C251.156 117.25 251.656 114.75 252.094 112.188C252.594 109.562 253.25 107.156 254.062 104.969C254.875 102.781 255.938 101 257.25 99.625C258.625 98.1875 260.5 97.4688 262.875 97.4688C265.688 97.4688 268.219 98.5625 270.469 100.75C272.781 102.938 274.844 105.719 276.656 109.094C278.469 112.469 280 116.219 281.25 120.344C282.562 124.469 283.656 128.438 284.531 132.25C285.406 136.062 286.062 139.5 286.5 142.562C286.938 145.625 287.156 147.812 287.156 149.125C287.156 149.688 287.125 150.312 287.062 151C287 151.625 286.844 152.219 286.594 152.781C286.344 153.281 285.938 153.688 285.375 154C284.812 154.25 284 154.219 282.938 153.906C282.625 153.844 282.25 153.688 281.812 153.438C281.438 153.125 281.031 152.75 280.594 152.312C280.156 151.875 279.781 151.469 279.469 151.094C279.156 150.656 279 150.281 279 149.969C278.438 146.906 277.812 143.5 277.125 139.75C276.438 136 275.562 132.219 274.5 128.406C273.5 124.531 272.219 120.781 270.656 117.156C269.094 113.531 267.156 110.406 264.844 107.781C263.031 108.781 261.594 110.312 260.531 112.375C259.531 114.375 258.688 116.594 258 119.031C257.312 121.406 256.688 123.844 256.125 126.344C255.562 128.844 254.812 131.125 253.875 133.188C252.938 135.188 251.75 136.844 250.312 138.156C248.875 139.469 246.938 140.125 244.5 140.125C242.812 140.125 241.156 139.594 239.531 138.531C237.969 137.406 236.438 135.969 234.938 134.219C233.438 132.406 231.969 130.438 230.531 128.312C229.156 126.125 227.781 124 226.406 121.938C225.094 119.812 223.781 117.844 222.469 116.031C221.219 114.219 219.938 112.781 218.625 111.719C218.125 113.656 217.719 115.375 217.406 116.875C217.156 118.312 216.938 119.719 216.75 121.094C216.625 122.469 216.531 123.875 216.469 125.312C216.469 126.75 216.469 128.344 216.469 130.094C216.469 132.719 216.688 135.344 217.125 137.969C217.562 140.531 218.031 143.094 218.531 145.656C219.031 148.219 219.5 150.812 219.938 153.438C220.438 156 220.688 158.594 220.688 161.219V161.969C220.562 162.156 220.312 162.469 219.938 162.906C219.562 163.281 219.156 163.688 218.719 164.125C218.344 164.562 217.938 164.969 217.5 165.344C217.062 165.656 216.75 165.875 216.562 166C216.5 166.062 216.375 166.094 216.188 166.094C216 166.156 215.812 166.188 215.625 166.188C215.5 166.188 215.344 166.156 215.156 166.094C214.969 166.031 214.812 166 214.688 166C214.25 162.375 213.781 158.938 213.281 155.688C212.781 152.438 212.312 149.219 211.875 146.031C211.5 142.844 211.156 139.625 210.844 136.375C210.594 133.125 210.469 129.625 210.469 125.875ZM291.844 91.9375C291.844 90 292.188 88.4062 292.875 87.1562C293.625 85.9062 294.625 84.9062 295.875 84.1562C297.125 83.3438 298.5 82.75 300 82.375C301.562 82 303.156 81.75 304.781 81.625C306.469 81.4375 308.094 81.375 309.656 81.4375C311.219 81.4375 312.656 81.4375 313.969 81.4375C316.531 81.4375 319.094 81.6875 321.656 82.1875C324.219 82.6875 326.469 83.5625 328.406 84.8125C330.406 86.0625 332.031 87.75 333.281 89.875C334.531 91.9375 335.156 94.5312 335.156 97.6562C335.156 100.406 334.594 103.156 333.469 105.906C332.406 108.594 331 111.188 329.25 113.688C327.562 116.125 325.625 118.375 323.438 120.438C321.25 122.438 319.062 124.156 316.875 125.594C314.75 127.031 312.688 128.156 310.688 128.969C308.75 129.781 307.125 130.094 305.812 129.906C305.062 132.344 304.594 134.969 304.406 137.781C304.281 140.531 304.25 143.25 304.312 145.938C304.375 148.562 304.469 151.094 304.594 153.531C304.719 155.906 304.594 157.969 304.219 159.719C303.906 161.406 303.281 162.688 302.344 163.562C301.406 164.375 299.969 164.625 298.031 164.312C297.469 159.875 297.031 155.375 296.719 150.812C296.469 146.25 296.25 141.719 296.062 137.219C295.875 132.719 295.688 128.344 295.5 124.094C295.375 119.781 295.156 115.688 294.844 111.812C294.594 107.938 294.219 104.312 293.719 100.938C293.219 97.5625 292.594 94.5625 291.844 91.9375ZM315 89.5C314.062 89.5 312.906 89.5312 311.531 89.5938C310.156 89.6562 308.812 89.875 307.5 90.25C306.25 90.5625 305.188 91.1562 304.312 92.0312C303.438 92.8438 303 94.0312 303 95.5938V120.156C305.562 120.156 308.281 119.469 311.156 118.094C314.031 116.719 316.656 114.969 319.031 112.844C321.406 110.719 323.375 108.312 324.938 105.625C326.5 102.938 327.281 100.281 327.281 97.6562C327.281 95.7188 326.906 94.2188 326.156 93.1562C325.469 92.0938 324.531 91.2812 323.344 90.7188C322.219 90.1562 320.938 89.8125 319.5 89.6875C318.062 89.5625 316.562 89.5 315 89.5Z" fill="white"/>
</svg>
