<svg width="304" height="188" viewBox="0 0 304 188" fill="none" xmlns="http://www.w3.org/2000/svg">
<path fill-rule="evenodd" clip-rule="evenodd" d="M223.847 151.322C222.412 152.983 220.292 154.215 218.665 155.732C216.958 157.327 215.104 158.72 213.403 160.295C205.898 151.123 195.618 145.499 186.713 137.888C182.491 134.28 179.38 129.385 177.104 124.362C175.937 121.787 175.074 119.136 174.4 116.393C174.096 115.158 173.799 113.926 173.6 112.674C173.36 111.157 173.297 111.028 172.274 109.844C171.834 109.334 170.98 107.846 170.117 108.01C169.391 108.148 168.063 110.358 167.604 110.904C165.398 113.53 163.258 116.236 160.935 118.76C157.38 122.623 154.144 126.424 150.844 130.517C144.092 138.893 136.81 146.777 129.461 154.658C128.916 155.243 127.645 156.957 126.862 157.187C125.91 157.467 124.363 156.299 123.404 155.646C121.089 154.071 119.265 152.12 117.287 150.167C113.426 146.356 110.811 141.007 109.052 135.917C108 132.87 107.315 129.712 106.228 126.676C105.776 125.41 104.749 123.855 105.27 122.753C105.425 122.424 106.413 121.551 106.761 121.485C107.173 121.406 107.86 121.97 108.003 121.931C109.37 121.557 108.611 120.127 109.424 119.357C109.885 118.92 112.229 118.984 112.929 118.744C115.487 117.867 117.783 116.192 120.201 115.193C130.327 111.009 140.577 106.94 149.318 100.108C151.585 98.337 153.092 97.0057 155.797 95.8607C158.531 94.7036 161.279 93.6714 164.068 92.6617C166.529 91.7709 169.003 90.9358 171.546 90.2973C174.295 89.6067 178.194 88.7312 180.941 89.6207C186.335 91.367 188.077 95.8114 190.225 100.5C193.131 106.843 196.645 112.846 200.454 118.684C207.783 129.918 216.696 139.998 223.847 151.322Z" fill="#84CEEB"/>
<path fill-rule="evenodd" clip-rule="evenodd" d="M61.4013 52.0119C61.1045 51.8613 58.7871 52.8045 58.3981 52.9488C56.8444 53.5252 55.381 54.4831 53.9172 55.2623C55.039 56.6276 56.1612 57.9932 57.2827 59.3587C58.3823 56.6616 59.7955 54.4361 61.4013 52.0119ZM62.1663 68.7932C61.7846 68.8361 65.0071 76.5799 65.3833 77.4493C66.7527 80.6118 68.1904 83.7433 69.5779 86.8978C70.9222 89.9547 72.6275 92.7669 74.3455 95.6226C75.815 98.0649 77.3265 101.855 79.5431 103.664C78.1435 97.4547 78.3279 90.3154 74.3134 85.1019C70.1522 79.6971 66.038 74.4195 62.1663 68.7932ZM223.847 151.598C217.629 141.752 209.845 133.04 203.36 123.369C199.729 117.954 196.195 112.469 193.139 106.705C190.916 102.512 189.534 96.5296 186.101 93.324C184.588 91.9117 182.971 90.5293 180.941 89.8965C178.162 89.0308 174.337 89.8889 171.545 90.5734C166.344 91.8488 161.263 93.8293 156.336 95.9093C151.339 98.0188 147.075 101.808 142.56 104.853C137.716 108.119 132.473 110.498 127.047 112.581C122.322 114.395 118.118 116.999 113.418 118.824C112.482 119.188 110.57 119.135 109.785 119.609C108.938 120.12 109.271 121.628 108.244 122.184C107.78 122.435 107.626 121.525 107.27 121.54C106.834 121.558 106.437 122.069 106.018 122.393C104.31 123.711 105.356 124.59 106.032 126.403C108.237 132.311 109.422 138.323 112.517 143.901C115.062 148.486 118.704 152.594 122.993 155.629C123.645 156.092 125.772 157.881 126.537 157.762C127.226 157.655 128.629 155.823 129.105 155.325C131.264 153.067 133.238 150.638 135.396 148.376C138.731 144.881 141.942 141.291 145.178 137.748C148.935 133.635 152.26 128.974 155.644 124.58C157.201 122.558 159.204 120.911 160.935 119.036C163.261 116.516 165.397 113.806 167.604 111.18C168.272 110.386 169.39 108.354 170.428 108.377C171.155 108.394 172.437 110.106 172.818 110.643C174.231 112.637 174.225 116.238 174.928 118.727C176.643 124.797 179.736 130.726 183.979 135.41C188.197 140.068 193.601 143.38 198.59 147.124C203.995 151.181 209.116 155.332 213.403 160.571C215.104 158.996 216.957 157.603 218.665 156.009C220.292 154.49 222.412 153.259 223.847 151.598ZM143.804 179.457C145.013 179.469 147.06 180.213 148.141 179.765C144.933 176.215 141.987 173.17 137.929 170.569C133.717 167.869 129.519 165.194 125.429 162.315C117.185 156.513 111.121 149.631 107.677 139.968C106.791 137.48 106.197 134.87 105.547 132.312C105.197 130.935 104.501 124.49 103.319 123.933C102.619 123.603 97.3503 127.307 96.5154 127.768C94.5635 128.848 92.6043 129.685 90.5863 130.529C86.2486 132.346 81.7769 133.731 77.1771 134.887C71.6624 136.274 67.906 133.98 64.4897 129.645C60.6138 124.728 57.393 119.179 53.8492 114.015C52.2376 111.666 50.9026 109.321 49.7124 106.731C48.9335 105.035 45.8442 100.462 46.9117 98.656C49.9571 100.975 51.0529 105.585 53.1275 108.689C55.7131 112.559 58.627 116.207 61.2259 120.072C63.4114 123.323 65.6411 127.262 68.8699 129.599C71.71 131.654 74.4081 131.022 77.4647 130.098C81.1693 128.979 85.0092 128.427 88.6398 127.039C92.5687 125.537 96.286 123.405 100.119 121.668C101.906 120.857 104.046 120.397 105.73 119.387C107.181 118.516 106.965 118.057 107.071 116.204C107.196 114.042 107.339 111.878 107.435 109.714C107.499 108.26 106.713 106.289 107.246 105.204C102.895 105.958 98.6412 106.969 94.3197 107.863C91.9537 108.352 89.6723 108.957 87.2821 109.342C86.371 109.488 85.1255 109.484 84.3098 109.881C83.6589 109.694 83.3271 109.813 83.3144 110.237C83.2833 110.468 83.234 110.695 83.1663 110.919C81.8319 111.526 81.0558 110.223 79.8984 108.975C78.4702 107.433 77.4008 105.697 76.3531 103.886C74.0103 99.8369 71.3099 96.0284 69.1419 91.865C66.9323 87.6208 65.1377 83.0766 63.2643 78.6732C61.5456 74.6333 60.4451 70.2643 58.5459 66.3201C57.6984 64.5595 56.6242 63.1037 55.3699 61.6164C54.3348 60.389 52.7423 57.7415 51.1965 57.1777C50.7879 57.0286 49.7175 57.2791 49.2532 57.246C48.3278 57.1799 47.5031 56.8402 46.5561 56.9146C44.5056 57.075 42.2702 58.3717 40.6317 59.5116C41.6906 60.4555 44.3394 61.6027 42.4368 63.3029C40.5904 64.9536 39.5706 61.9926 38.866 60.6954C35.5482 63.4199 36.0278 67.1765 35.6445 71.026C35.4443 73.0358 34.9177 75.015 34.578 76.9946C34.3333 78.4193 34.5049 79.8929 34.435 81.3475C34.2567 85.0438 33.8852 88.5818 33.9026 92.2263C33.9223 96.1219 34.1877 99.8839 34.4995 103.751C35.0241 110.262 36.2264 116.776 37.2573 123.235C37.8373 126.866 38.6311 130.393 39.4018 133.965C40.2764 138.019 41.8943 141.859 42.8016 145.903C43.7261 144.728 44.4214 144.722 45.9167 144.878C47.0668 144.998 47.8393 144.724 47.772 146.32C47.7284 147.356 46.8151 148.146 45.8045 148.327C44.4866 148.563 44.0388 147.905 43.3597 146.907C43.2008 148.797 44.4719 150.773 44.9747 152.62C45.4504 154.369 45.7657 156.084 46.5653 157.758C47.3455 159.392 48.0135 161.003 48.8029 162.621C49.1664 163.365 49.5065 164.121 49.8742 164.864C50.0601 165.24 50.2791 165.758 50.5565 166.074C51.2073 166.817 51.1037 166.457 51.8655 166.88C53.525 167.802 52.9018 167.573 52.9406 169.476C52.9784 171.354 53.9414 172.734 55.4855 173.789C58.7617 176.029 61.9931 176.652 65.7177 177.783C69.188 178.838 72.8433 179.743 76.518 179.722C81.0187 179.697 85.4596 179.107 89.9602 179.047C94.9255 178.981 99.9384 179.008 104.894 179.18C106.935 179.25 108.83 179.341 110.801 179.862C113.09 180.468 115.303 180.228 117.662 180.136C122.694 179.94 127.899 179.551 132.866 179.516C136.442 179.491 140.214 179.241 143.804 179.457ZM274.287 181.407C275.182 181.88 277.187 181.686 278.087 181.555C279.671 181.324 279.841 180.696 280.846 179.283C282.576 176.85 283.981 174.521 284.999 171.703C286.947 166.309 287.742 160.792 288.597 155.15C289.548 148.881 287.812 142.383 287.191 136.157C287.048 134.728 286.853 133.313 286.628 131.895C286.492 131.047 286.457 128.164 285.899 127.43C284.828 126.021 279.845 127.158 277.886 127.285C272.417 127.643 266.912 127.726 261.446 127.788C258.532 127.821 255.601 127.943 252.715 127.966C251.39 127.976 250.095 127.91 248.765 127.781C248.32 127.739 247.885 127.636 247.437 127.611C245.903 127.527 246.018 127.304 245.622 128.663C244.927 131.043 245.461 134.071 245.279 136.542C245.035 139.843 244.903 143.191 244.963 146.499C245.019 149.557 244.915 152.607 245.029 155.671C245.077 156.94 245.215 157.974 245.55 159.186C245.929 160.556 246.345 163.757 247.287 164.705C247.395 164.813 248.196 164.561 248.408 164.83C248.736 165.244 248.676 166.12 248.901 166.388C249.629 167.254 251.134 167.323 252.225 167.712C255.221 168.78 257.968 169.94 260.791 171.38C263.314 172.667 267.38 173.762 268.897 176.301C269.592 177.464 269.686 178.999 270.325 180.2C271.054 181.567 269.597 180.852 271.381 181.407C272.184 181.657 273.464 181.407 274.287 181.407ZM8.36889 165.937C8.14198 169.096 6.36263 172.105 5.74325 175.21C5.45341 176.664 4.96178 178.094 4.6211 179.54C4.29441 180.926 3.11411 182.569 3.2336 183.941C7.58997 182.389 12.0026 181.999 16.5557 181.58C20.871 181.183 25.4298 181.025 29.709 181.023C34.0695 181.021 38.7319 180.595 43.2217 180.529C47.9172 180.46 52.6835 180.338 57.311 179.852C54.8913 178.06 51.8636 176.377 50.0769 173.883C48.1346 171.173 47.1259 167.777 45.4168 164.916C41.9871 159.177 39.8067 152.055 38.0089 145.606C34.3793 132.588 30.3233 119.811 29.3457 106.309C27.4854 107.261 26.0086 110.958 25.0771 112.798C23.8882 115.148 23.2656 117.696 22.4928 120.194C20.9012 125.339 19.7997 130.673 17.851 135.769C14.1264 145.51 11.7325 156.006 8.36889 165.937ZM244.846 90.0675C245.651 95.8895 247.341 101.787 247.406 107.679C247.42 108.975 247.2 110.415 247.47 111.693C247.759 113.058 248.697 114.264 249.239 115.561C250.099 117.62 252.277 121.84 250.177 123.584C250.134 121.929 248.619 119.826 247.856 118.379C246.706 116.198 245.195 114.204 243.948 112.077C241.339 107.625 238.414 103.268 235.051 99.3431C231.775 95.52 228 92.1287 224.526 88.4884C223.482 87.3945 215.109 76.8668 214.777 77.014C217.374 87.029 221.789 95.743 227.83 104.128C230.792 108.239 234.348 110.944 237.954 114.427C240.957 117.327 246.616 120.428 245.578 125.18C250.272 124.729 254.936 124.008 259.672 124.008C258.893 118.012 258.297 112.112 256.906 106.215C255.327 99.5198 254.258 92.6239 252.922 85.8688C251.559 78.9726 249.246 72.2963 247.807 65.4131C246.43 58.822 245.246 52.2426 244.236 45.5781C243.402 49.2709 243.71 53.3269 243.413 57.0947C243.111 60.9442 243.14 64.7228 243.241 68.5949C243.427 75.7869 244.194 82.8923 244.846 90.0675ZM265.187 55.7778C265.213 52.6993 265.81 49.6624 265.994 46.5912C266.05 45.6489 266.989 39.2202 266.113 38.8846C265.394 40.4539 265.226 42.4621 264.572 44.1086C263.919 45.7535 263.045 47.3206 262.419 48.9769C261.061 52.5652 260.593 56.6254 260.446 60.4402C260.116 69.069 259.945 77.6785 260.525 86.3073C260.773 90.0058 260.964 93.7107 260.896 97.4166C260.821 101.494 260.197 105.034 260.955 109.078C261.706 113.083 262.177 117.071 262.427 121.134C262.603 123.986 262.673 123.785 265.394 123.584C267.359 123.439 269.342 123.594 271.309 123.504C270.39 112.389 270.239 101.25 268.77 90.1778C268.021 84.5289 268 78.7984 267.069 73.1705C266.607 70.3749 265.83 67.6354 265.384 64.8366C264.905 61.8315 265.141 58.8061 265.187 55.7778ZM66.2112 48.7828C71.4494 49.2366 77.0214 50.8027 82.3906 49.7686C81.5055 49.4101 79.1894 48.9156 80.2318 47.5008C81.2916 46.0621 83.0777 47.8869 84.1347 47.6984C84.7865 47.5821 86.2267 44.8576 86.6284 44.2935C87.5402 43.0116 87.6501 42.7881 89.2896 42.4595C90.878 42.1417 91.2381 42.4859 91.4392 40.9068C91.6703 39.0909 91.042 37.0494 91.1043 35.1925C91.2381 31.1949 92.5277 27.6893 93.728 23.9281C88.6283 25.0376 83.6417 26.3532 78.4273 27.0683C76.1983 27.374 72.7305 28.0792 70.7055 26.5639C70.1789 26.1699 70.2631 25.6379 69.8322 25.1812C69.1095 24.415 67.769 23.6224 66.7441 23.4041C60.4368 22.0614 59.8216 31.0528 62.9824 34.4174C63.774 35.2605 64.8755 35.6768 65.6862 36.4494C66.7683 37.4797 66.857 38.5649 67.0149 40.1377C67.3111 43.0869 66.9088 46.0475 65.6506 48.7453L66.2112 48.7828ZM142.751 91.231C144.613 91.5844 146.556 91.5036 148.423 91.8052C149.086 91.9123 151.075 92.286 151.658 91.8983C152.548 91.3063 152.865 89.1348 153.286 88.1235C154.027 86.3448 155.074 84.7933 155.78 82.9822C158.666 75.5845 161.357 68.1573 164.847 61.0122C163.509 60.6646 162.482 60.6509 161.134 60.4713C159.73 60.2842 158.457 59.4538 157.117 59.0969C155.843 58.7578 154.509 58.8442 153.248 58.4498C152.553 58.2328 151.956 57.75 151.271 57.5813C150.179 57.3128 148.904 57.1558 148.254 57.8727C147.589 58.6081 147.355 60.6245 146.993 61.5744C146.028 64.105 144.907 66.5473 144.099 69.1361C143.37 71.4709 142.677 73.781 142.035 76.1372C141.357 78.6246 140.02 80.6747 139.206 83.0509C138.586 84.8594 138.002 86.7084 137.909 88.6368C137.82 90.5185 137.546 90.6383 139.427 90.9389C140.377 91.0905 141.857 91.6549 142.751 91.231ZM265.259 179.298C265.744 179.524 266.201 179.494 266.63 179.207C262.426 177.432 258.336 174.969 253.95 173.75C249.835 172.608 245.836 171.242 241.872 169.835C238.651 168.692 235.755 167.802 232.844 165.789C231.076 164.568 229.506 163.194 228.291 161.409C226.939 159.422 226.638 156.593 225.173 154.803C223.197 156.974 220.875 158.618 218.536 160.343C217.727 160.94 215.786 162.241 215.509 163.165C215.16 164.33 216.096 165.445 216.558 166.624C217.743 169.645 218.322 172.663 218.965 175.804C219.223 177.062 219.779 178.954 220.813 179.481C221.755 179.961 224.481 179.612 225.652 179.523C231.763 179.06 237.766 178.586 243.914 179.008C250.872 179.485 258.32 179.814 265.259 179.298ZM277.465 123.33C278.576 123.334 279.661 123.195 280.767 123.195C280.129 120.212 281.622 116.353 282.151 113.376C282.744 110.046 283.195 106.602 283.59 103.245C284.422 96.1743 284.8 89.1894 284.81 82.0669C284.821 75.1749 286.075 68.8768 287.833 62.2513C289.72 55.1358 292.81 48.737 295.365 41.8748C292.562 43.3564 291.011 46.8232 289.538 49.4736C287.677 52.8248 286.437 56.5354 285.676 60.2975C284.21 67.555 282.601 74.8345 280.909 82.08C279.147 89.6242 278.111 97.2376 276.092 104.72C275.107 108.369 273.769 112.858 273.694 116.621C273.664 118.178 273.195 121.438 273.9 122.79C274.56 124.055 276.018 123.459 277.465 123.33ZM109.811 113.969C109.752 114.744 109.697 115.481 109.559 116.246C111.098 116.232 113.046 114.635 114.366 113.919C115.973 113.046 117.583 112.083 119.155 111.205C122.19 109.511 125.635 108.395 128.876 107.003C132.598 105.403 136.02 103.471 139.58 101.546C140.824 100.874 149.761 96.9996 149.611 95.9413C147.649 95.8759 145.687 95.8107 143.724 95.7456C142.042 95.6897 139.437 96.0697 137.826 95.5498C136.944 95.2648 135.953 94.2157 135.62 93.3942C135.291 92.5813 136.031 88.8424 135.601 88.604C133.405 90.8461 132.024 93.8261 130.061 96.2449C127.891 98.9182 125.087 100.479 121.997 101.9C118.585 103.469 115.053 104.684 111.566 106.028C110.096 106.595 110.125 106.92 109.997 108.532C109.853 110.334 109.869 112.162 109.811 113.969ZM287.125 181.775C290.824 182.172 294.614 181.945 298.342 182.255C299.699 182.367 301.579 182.535 300.214 184.355C299.355 185.502 296.602 185.134 295.354 185.214C292.001 185.427 288.452 185.312 285.092 185.263C284.384 185.253 283.602 185.042 282.887 185.09C282.062 185.144 281.074 185.738 280.322 185.733C279.858 185.73 279.692 185.241 279.292 185.196C278.421 185.098 277.55 185.027 276.672 185.027C263.391 185.03 250.292 184.763 237.045 184.749C230.71 184.742 224.274 184.633 217.942 184.335C216.612 184.273 209.04 184.545 209.249 182.151C209.357 180.918 211.829 180.744 212.73 180.613C213.399 180.516 214.092 180.531 214.762 180.495C216.541 180.4 217.32 180.828 216.945 178.881C215.521 171.498 212.971 165.397 207.521 160.088C203.065 155.747 197.699 151.81 192.652 148.185C186.524 143.784 181.552 139.154 177.913 132.419C175.789 128.486 174.01 124.465 172.918 120.117C172.526 118.552 172.516 116.773 172.035 115.264C171.665 114.103 170.821 113.291 170.324 112.088C164.226 122.272 156.145 130.792 148.735 139.975C145.195 144.362 141.156 148.528 136.926 152.345C135.67 153.477 134.499 154.66 133.327 155.879C132.347 156.899 130.791 157.805 129.964 158.937C129.17 160.023 129.365 159.971 130.573 160.833C132.171 161.972 133.931 162.919 135.553 164.03C138.147 165.806 140.977 167.307 143.296 169.444C145.804 171.756 147.994 174.434 150.186 177.04C151.647 178.778 153.564 181.007 153.932 183.204C154.053 183.931 154.515 185.728 153.905 186.26C153.384 186.715 153.437 186.543 152.79 186.265C151.942 185.902 151.692 185.067 150.657 184.67C148.007 183.653 144.8 184.002 142.042 183.99C139.284 183.977 136.502 184.287 133.745 184.276C127.449 184.25 121.287 184.76 114.992 185.033C108.307 185.324 101.54 184.627 94.8772 184.725C89.9405 184.798 84.8723 184.429 79.7993 184.704C77.1898 184.845 74.6271 184.518 72.0828 184.482C68.7517 184.434 65.3306 184.887 61.9708 184.951C56.4564 185.058 51.0094 185.057 45.4612 185.19C33.5273 185.475 21.6579 185.77 9.71698 185.959C8.12418 185.984 6.38043 185.93 4.80638 186.11C3.13572 186.3 3.99822 186.655 2.85192 187.257C-0.357193 188.94 0.38391 182.7 0.460817 181.473C0.873318 174.896 2.54303 168.445 4.5496 162.201C6.45321 156.279 7.99865 150.08 9.61084 144.03C11.3756 137.408 13.6748 131.057 15.7628 124.501C17.9022 117.782 19.644 110.801 23.5297 104.845C24.4148 103.489 25.3294 102.029 26.7532 101.174C28.3491 100.215 28.4178 100.775 28.4165 99.0205C28.4156 97.3679 28.5172 95.1602 28.1273 93.5833C27.7749 92.1586 27.8292 93.0033 27.0357 91.98C26.3899 91.1477 25.7143 90.5788 25.2509 89.5682C22.4047 92.4542 15.8896 90.9313 13.1397 88.8532C9.77387 86.3095 7.2102 82.0183 6.27079 77.9314C5.51634 74.6496 6.44208 68.3937 10.0745 66.8155C11.8453 66.0461 18.3493 65.4646 18.6096 62.9571C18.7437 61.6628 16.4546 59.8427 15.9264 58.7298C14.9476 56.6679 14.0076 53.9254 13.7355 51.6652C13.2042 47.2535 15.2069 42.3203 18.3973 39.3404C24.2499 33.8736 34.5475 31.0681 42.0758 34.5365C40.4849 28.4593 39.5245 23.2166 40.3256 16.895C41.0159 11.4489 44.2292 8.40182 48.6507 5.6891C56.1958 1.05943 66.4562 -0.767904 75.0835 0.578286C77.044 0.884325 78.9253 1.54058 80.7406 2.06272C83.3777 2.8213 86.5347 2.56865 89.0246 3.80107C90.83 4.6944 92.201 6.47406 93.7865 7.66231C95.6377 9.04949 97.1758 11.1199 98.4619 13.0347C101.212 17.1292 100.138 24.7283 97.8355 28.8384C97.342 29.72 96.7321 30.4621 95.9154 31.0636C95.065 31.6897 93.7687 31.8845 93.3304 32.6965C92.208 34.7765 93.2907 39.2793 93.4404 41.5274C93.6149 44.1378 92.2951 46.0986 89.3351 46.3068C87.6228 46.4276 87.5681 45.4341 86.7482 47.4782C86.2169 48.8031 85.7341 50.2465 84.9673 51.4611C83.3862 53.9644 80.4905 53.7201 77.8528 53.6524C74.7994 53.5735 71.7917 53.0911 68.7367 52.7867C69.5436 55.372 71.7523 57.3785 73.1316 59.6816C74.9964 62.7967 76.1189 65.3788 76.422 69.008C76.6547 71.7964 76.1525 73.9984 74.2445 76.0736C73.4548 76.9326 72.7546 76.9749 72.9507 77.9658C73.0702 78.5702 74.1155 79.5675 74.4854 80.0499C75.4639 81.3262 76.6 82.4976 77.4612 83.8606C80.7752 89.1049 81.754 97.0994 81.7623 103.204C81.7626 103.484 81.912 104.08 81.7884 104.369C81.6968 104.583 81.0015 105.26 80.9913 105.318C80.8553 106.103 81.6206 107.449 82.8215 107.582C84.0828 107.721 86.3929 106.669 87.5662 106.323C89.4438 105.77 91.3576 105.361 93.231 104.792C96.2567 103.874 99.2685 103.142 102.344 102.423C103.734 102.098 105.132 101.827 106.527 101.523C108.115 101.177 108.853 100.509 109.673 102.125C110.376 103.512 109.939 103.763 111.643 103.064C113.334 102.37 114.987 101.509 116.639 100.726C119.552 99.344 123.021 98.1122 125.533 96.0723C129.725 92.669 131.277 87.2493 135.289 83.6381C136.406 82.6326 137.072 82.6148 137.778 81.2219C138.534 79.7311 138.924 77.8193 139.321 76.2157C140.018 73.4076 140.513 70.5897 141.145 67.7842C141.931 64.289 143.631 61.1238 144.871 57.7901C145.355 56.4912 145.605 54.8403 146.385 53.673C146.591 53.3635 146.986 53.189 147.147 52.9329C147.702 52.0535 147.696 51.812 147.84 50.754C148.512 45.8107 151.463 48.4112 154.687 49.5448C156.046 50.0225 162.497 53.12 160.033 55.18C162.97 56.032 167.673 55.569 167.633 59.7773C167.613 61.9335 166.323 64.2401 165.631 66.2584C165.016 68.0505 164.422 69.8495 163.798 71.6387C162.429 75.5581 160.77 79.3603 159.435 83.2917C158.826 85.0835 158.324 86.9172 157.477 88.6082C156.729 90.0999 154.92 91.7442 154.622 93.3755C162.447 90.037 169.686 85.2103 178.445 85.5179C182.28 85.6523 185.761 87.2645 187.879 90.6367C190.535 94.8634 192.282 99.5957 194.877 103.861C204.319 119.379 215.581 133.477 225.946 148.352C226.742 149.495 227.766 150.576 228.042 151.989C228.222 152.91 227.873 153.832 228.089 154.718C228.537 156.558 230.803 158.855 232.339 159.912C235.284 161.939 240.071 164.798 243.746 164.545C241.439 159.003 241.47 152.93 241.577 147.018C241.679 141.402 242.286 135.832 243.007 130.274C243.17 129.016 243.312 127.85 243.673 126.632C244.088 125.233 244.657 125.366 243.415 124.109C241.503 122.174 239.229 120.581 237.302 118.622C233.133 114.384 228.861 111.063 225.58 106.002C222.459 101.189 219.168 96.2372 216.858 90.9666C214.48 85.5408 213.53 79.7464 212.349 74.0003C211.87 71.6686 210.124 69.0655 210.475 66.6306C210.918 63.5533 212.345 65.7941 212.926 67.4502C214.699 72.5054 218.85 77.0299 222.288 81.0954C226.002 85.4874 230.545 89.1621 234.422 93.4263C238.644 98.0706 241.536 103.408 245.29 108.366C245.29 102.213 243.19 95.948 242.33 89.8616C241.574 84.5045 241.337 79.1305 240.859 73.7502C239.774 61.5283 240.712 48.9464 242.235 36.812C242.959 31.049 242.548 25.4218 242.57 19.6391C242.577 17.7988 241.815 13.5571 242.786 11.924C244.646 8.79589 245.73 15.6358 245.824 16.6557C246.386 22.7307 245.378 28.738 245.893 34.787C246.432 41.1038 247.6 47.2433 248.594 53.4871C249.671 60.2476 251.424 66.8556 253.103 73.4864C254.865 80.4484 256.347 87.5556 258.307 94.462C258.836 92.2911 258.094 89.6242 257.948 87.4133C257.738 84.2493 257.33 81.0846 257.295 77.9124C257.238 72.8565 257.199 67.707 257.485 62.6746C257.767 57.7145 257.682 52.5169 259.203 47.7382C259.925 45.47 260.984 43.2572 262.02 41.1207C263.298 38.4861 263.75 35.9317 264.458 33.1296C265.064 30.73 265.951 28.3935 266.355 25.9458C266.606 24.4236 267.307 19.9299 269.05 23.3345C270.062 25.3106 269.624 28.24 269.653 30.3629C269.689 33.0845 269.272 35.7308 269.208 38.441C269.084 43.7584 268.995 49.0694 268.598 54.3779C268.182 59.9473 268.546 64.9386 269.605 70.4263C270.765 76.4333 271.104 82.4534 271.705 88.5338C272.015 91.6733 272.537 94.7954 272.79 97.9393C272.923 99.6043 272.239 104.379 273.432 105.564C273.547 102.681 274.373 99.7943 275 96.9844C275.742 93.6554 276.041 90.1559 276.588 86.7793C277.474 81.3087 279.193 76.0844 280.33 70.6752C282.674 59.5246 284.621 45.1936 294.443 37.895C295.729 36.94 297.141 36.2352 298.53 35.4492C299.317 35.0043 300.485 33.8533 301.385 33.6524C302.368 33.4331 302.777 33.6035 303.176 34.7431C303.731 36.3318 302.715 37.0738 301.767 38.2277C298.487 42.2206 297.085 47.339 295.06 52.0217C290.421 62.7445 288.369 74.0543 288.345 85.645C288.333 91.7127 287.914 97.565 287.267 103.596C286.571 110.086 285.654 116.951 283.682 123.194C285.66 123.638 287.806 122.977 288.342 125.276C288.474 125.84 288.236 126.508 288.382 127.243C288.524 127.958 288.865 128.668 289.066 129.371C289.483 130.824 289.704 132.258 289.907 133.75C290.691 139.518 292.037 145.003 292.18 150.851C292.312 156.256 291.254 161.733 290.279 167.035C289.296 172.374 286.479 176.926 284.261 181.755C285.216 181.755 286.17 181.765 287.125 181.775Z" fill="#323130"/>
<path fill-rule="evenodd" clip-rule="evenodd" d="M161.595 169.5C160.543 169.797 155.465 170.358 155.466 171.952C155.466 172.908 160.538 172.889 161.435 172.993C161.488 171.829 161.542 170.664 161.595 169.5ZM172.804 180.495C175.73 181.052 179.702 180.269 181.573 177.689C182.447 176.484 182.862 174.651 183.146 173.212C183.418 171.841 184.257 168.42 183.686 167.135C182.986 165.557 176.262 167.206 174.304 167.387C170.888 167.702 167.356 167.74 163.937 167.517C163.937 171.046 163.757 174.486 165.833 177.524C167.331 179.716 170.143 180.233 172.804 180.495ZM172.215 184.855C169.036 183.691 165.698 184.447 163.627 181.034C163.102 180.168 162.66 179.237 162.342 178.275C162.186 177.853 162.066 177.422 161.98 176.98C162.142 176.028 161.793 175.76 160.934 176.175C159.249 175.847 157.401 177.004 155.626 176.663C151.32 175.836 152.102 169.669 154.992 167.534C155.562 167.112 156.133 166.994 156.786 166.786C158.226 166.327 159.006 166.84 160.323 166.709C161.388 166.604 161.68 165.488 162.824 164.996C163.574 164.674 164.613 164.699 165.401 164.667C169.522 164.497 173.656 164.499 177.804 164.23C179.738 164.105 181.827 164.412 183.722 164.081C184.609 163.926 184.482 163.335 185.322 163.853C186.192 164.39 185.816 166.374 185.772 167.165C185.518 171.739 185.246 176.644 182.796 180.643C180.554 184.302 176.143 184.676 172.215 184.855Z" fill="#323130"/>
<path fill-rule="evenodd" clip-rule="evenodd" d="M4.29517 186.115C5.31816 186.104 6.34083 186.093 7.36032 186.083C6.33606 186.094 5.31561 186.104 4.29517 186.115Z" fill="#323130"/>
<path fill-rule="evenodd" clip-rule="evenodd" d="M288.352 88.5904C288.35 87.6077 288.347 86.6251 288.345 85.6444C288.347 86.6277 288.349 87.609 288.352 88.5904Z" fill="#323130"/>
<path fill-rule="evenodd" clip-rule="evenodd" d="M28.1304 92.6257C28.1272 93.5829 28.124 94.5401 28.1208 95.4951C28.1237 94.5373 28.1269 93.5813 28.1304 92.6257Z" fill="#323130"/>
<path fill-rule="evenodd" clip-rule="evenodd" d="M113.163 185.03C113.977 185.031 114.791 185.032 115.601 185.034C114.786 185.033 113.975 185.032 113.163 185.03Z" fill="#323130"/>
<path fill-rule="evenodd" clip-rule="evenodd" d="M63.7467 184.835C64.5606 184.837 65.3741 184.84 66.1842 184.843C65.3691 184.841 64.558 184.837 63.7467 184.835Z" fill="#323130"/>
<path fill-rule="evenodd" clip-rule="evenodd" d="M241.685 145.081C241.649 145.727 241.613 146.373 241.577 147.018C241.613 146.371 241.649 145.726 241.685 145.081Z" fill="#323130"/>
<path fill-rule="evenodd" clip-rule="evenodd" d="M287.125 181.774C286.496 181.767 285.867 181.761 285.238 181.754C285.87 181.491 286.499 181.503 287.125 181.774Z" fill="#323130"/>
<path fill-rule="evenodd" clip-rule="evenodd" d="M231.286 184.635C231.738 184.628 232.189 184.621 232.636 184.613C232.184 184.62 231.735 184.628 231.286 184.635Z" fill="#323130"/>
<path fill-rule="evenodd" clip-rule="evenodd" d="M288.107 96.5631C288.118 96.0746 288.129 95.5865 288.14 95.0999C288.129 95.5887 288.118 96.0759 288.107 96.5631Z" fill="#323130"/>
<path fill-rule="evenodd" clip-rule="evenodd" d="M245.893 34.7866C245.856 34.2829 245.819 33.7795 245.781 33.277C245.819 33.7811 245.856 34.2838 245.893 34.7866Z" fill="#323130"/>
<path fill-rule="evenodd" clip-rule="evenodd" d="M288.33 90.5139C288.336 90.009 288.342 89.5043 288.348 89.0012C288.342 89.5065 288.336 90.0102 288.33 90.5139Z" fill="#323130"/>
<path fill-rule="evenodd" clip-rule="evenodd" d="M146.374 184.009C146.776 184.015 147.177 184.02 147.575 184.025C147.173 184.019 146.773 184.014 146.374 184.009Z" fill="#323130"/>
<path fill-rule="evenodd" clip-rule="evenodd" d="M249.756 184.832C250.148 184.84 250.54 184.848 250.929 184.856C250.535 184.848 250.146 184.84 249.756 184.832Z" fill="#323130"/>
<path fill-rule="evenodd" clip-rule="evenodd" d="M292.135 149.331C292.107 148.888 292.078 148.445 292.051 148.003C292.079 148.446 292.107 148.888 292.135 149.331Z" fill="#323130"/>
<path fill-rule="evenodd" clip-rule="evenodd" d="M285.092 185.262C285.411 185.261 285.731 185.259 286.046 185.258C285.726 185.26 285.409 185.261 285.092 185.262Z" fill="#323130"/>
<path fill-rule="evenodd" clip-rule="evenodd" d="M241.579 184.852C241.896 184.844 242.212 184.837 242.525 184.829C242.207 184.837 241.893 184.845 241.579 184.852Z" fill="#323130"/>
<path fill-rule="evenodd" clip-rule="evenodd" d="M170.492 184.611C170.84 184.609 171.188 184.607 171.533 184.604C171.184 184.606 170.838 184.608 170.492 184.611Z" fill="#323130"/>
<path fill-rule="evenodd" clip-rule="evenodd" d="M90.2135 184.609C90.5443 184.611 90.8755 184.614 91.2028 184.617C90.8707 184.615 90.5421 184.612 90.2135 184.609Z" fill="#323130"/>
<path fill-rule="evenodd" clip-rule="evenodd" d="M70.6846 184.663C71.0221 184.644 71.3589 184.625 71.6933 184.607C71.3548 184.626 71.0198 184.644 70.6846 184.663Z" fill="#323130"/>
<path fill-rule="evenodd" clip-rule="evenodd" d="M164.182 56.0762C163.68 56.033 163.178 55.9898 162.676 55.9462C163.179 55.9815 163.71 55.684 164.182 56.0762Z" fill="#323130"/>
<path fill-rule="evenodd" clip-rule="evenodd" d="M292.182 181.965C291.687 181.915 291.192 181.865 290.697 181.815C291.192 181.865 291.687 181.915 292.182 181.965Z" fill="#323130"/>
<path fill-rule="evenodd" clip-rule="evenodd" d="M257.647 59.1248C257.614 59.5586 257.58 59.9927 257.547 60.4252C257.58 59.9908 257.614 59.5576 257.647 59.1248Z" fill="#323130"/>
<path fill-rule="evenodd" clip-rule="evenodd" d="M288.454 77.2113C288.488 76.8001 288.521 76.3888 288.555 75.9792C288.521 76.3911 288.487 76.801 288.454 77.2113Z" fill="#323130"/>
<path fill-rule="evenodd" clip-rule="evenodd" d="M257.45 65.8539C257.414 66.2871 257.378 66.7199 257.343 67.1515C257.378 66.718 257.414 66.2858 257.45 65.8539Z" fill="#323130"/>
<path fill-rule="evenodd" clip-rule="evenodd" d="M288.244 93.8123C288.241 93.3938 288.238 92.9753 288.235 92.558C288.505 92.9753 288.494 93.3928 288.244 93.8123Z" fill="#323130"/>
<path fill-rule="evenodd" clip-rule="evenodd" d="M241.692 153.918C241.688 154.337 241.685 154.757 241.68 155.175C241.403 154.752 241.458 154.334 241.692 153.918Z" fill="#323130"/>
<path fill-rule="evenodd" clip-rule="evenodd" d="M273.25 105.383C273.202 104.959 273.153 104.534 273.105 104.11C273.153 104.536 273.202 104.96 273.25 105.383Z" fill="#323130"/>
<path fill-rule="evenodd" clip-rule="evenodd" d="M11.9361 66.4118C11.6078 66.8456 11.1606 66.5484 10.7704 66.6012C11.1594 66.5379 11.5477 66.475 11.9361 66.4118Z" fill="#323130"/>
<path fill-rule="evenodd" clip-rule="evenodd" d="M174.264 164.531C173.85 164.532 173.435 164.532 173.02 164.533C173.435 164.532 173.85 164.531 174.264 164.531Z" fill="#323130"/>
<path fill-rule="evenodd" clip-rule="evenodd" d="M240.524 68.1942C240.563 68.547 240.602 68.8997 240.64 69.2512C240.602 68.8978 240.563 68.546 240.524 68.1942Z" fill="#323130"/>
<path fill-rule="evenodd" clip-rule="evenodd" d="M35.5618 33.1597C35.1448 33.168 34.7279 33.1762 34.3109 33.1845C34.7234 32.9417 35.1391 32.8715 35.5618 33.1597Z" fill="#323130"/>
<path fill-rule="evenodd" clip-rule="evenodd" d="M257.44 71.9558C257.413 72.3258 257.386 72.6954 257.359 73.0637C257.386 72.6938 257.413 72.3248 257.44 71.9558Z" fill="#323130"/>
<path fill-rule="evenodd" clip-rule="evenodd" d="M246.005 26.5482C246.038 26.211 246.07 25.8738 246.102 25.5385C246.07 25.8764 246.038 26.2123 246.005 26.5482Z" fill="#323130"/>
<path fill-rule="evenodd" clip-rule="evenodd" d="M242.729 25.4919C242.696 25.8577 242.664 26.2238 242.631 26.5883C242.664 26.2219 242.696 25.8568 242.729 25.4919Z" fill="#323130"/>
<path fill-rule="evenodd" clip-rule="evenodd" d="M61.6183 1.05597C61.194 1.10745 60.7698 1.15894 60.3458 1.2101C60.7701 1.15862 61.194 1.10745 61.6183 1.05597Z" fill="#323130"/>
<path fill-rule="evenodd" clip-rule="evenodd" d="M30.9749 33.451C30.5395 33.4955 30.1041 33.54 29.6691 33.5845C30.1044 33.54 30.5398 33.4955 30.9749 33.451Z" fill="#323130"/>
<path fill-rule="evenodd" clip-rule="evenodd" d="M269.556 34.5232C269.583 34.1829 269.609 33.8422 269.636 33.5038C269.609 33.8444 269.583 34.1838 269.556 34.5232Z" fill="#323130"/>
<path fill-rule="evenodd" clip-rule="evenodd" d="M16.6849 90.6958C16.9357 90.6996 17.1861 90.7031 17.433 90.7069C17.1813 90.7031 16.9331 90.6996 16.6849 90.6958Z" fill="#323130"/>
<path fill-rule="evenodd" clip-rule="evenodd" d="M242.742 132.704C242.717 133.081 242.692 133.458 242.667 133.833C242.692 133.457 242.717 133.08 242.742 132.704Z" fill="#323130"/>
<path fill-rule="evenodd" clip-rule="evenodd" d="M268.32 59.356C268.309 58.9927 268.3 58.6298 268.289 58.2675C268.3 58.6311 268.31 58.9934 268.32 59.356Z" fill="#323130"/>
<path fill-rule="evenodd" clip-rule="evenodd" d="M72.2983 0.196485C71.9116 0.196485 71.5248 0.196803 71.1387 0.196803C71.5254 -0.0688754 71.9119 -0.0622016 72.2983 0.196485Z" fill="#323130"/>
<path fill-rule="evenodd" clip-rule="evenodd" d="M175.554 85.6914C175.131 85.7022 174.707 85.713 174.284 85.7238C174.7 85.4296 175.124 85.4222 175.554 85.6914Z" fill="#323130"/>
<path fill-rule="evenodd" clip-rule="evenodd" d="M212.574 183.994C212.825 183.999 213.077 184.004 213.325 184.01C213.072 184.006 212.823 184 212.574 183.994Z" fill="#323130"/>
<path fill-rule="evenodd" clip-rule="evenodd" d="M222.031 184.435C222.282 184.426 222.532 184.417 222.779 184.409C222.528 184.418 222.279 184.427 222.031 184.435Z" fill="#323130"/>
<path fill-rule="evenodd" clip-rule="evenodd" d="M74.0341 184.61C74.2956 184.616 74.5571 184.623 74.8152 184.629C74.5527 184.623 74.2934 184.616 74.0341 184.61Z" fill="#323130"/>
<path fill-rule="evenodd" clip-rule="evenodd" d="M291.918 145.128C291.881 144.769 291.843 144.41 291.806 144.052C291.843 144.412 291.881 144.77 291.918 145.128Z" fill="#323130"/>
<path fill-rule="evenodd" clip-rule="evenodd" d="M257.76 84.5883C257.79 84.9306 257.819 85.2728 257.848 85.6129C257.819 85.2703 257.789 84.9293 257.76 84.5883Z" fill="#323130"/>
<path fill-rule="evenodd" clip-rule="evenodd" d="M270.905 78.7121C270.864 78.3492 270.824 77.9863 270.783 77.6246C270.824 77.9879 270.864 78.3498 270.905 78.7121Z" fill="#323130"/>
<path fill-rule="evenodd" clip-rule="evenodd" d="M76.1559 184.826C76.4197 184.822 76.6837 184.818 76.9447 184.814C76.6796 184.819 76.4177 184.822 76.1559 184.826Z" fill="#323130"/>
<path fill-rule="evenodd" clip-rule="evenodd" d="M172.216 184.855C172.472 184.843 172.728 184.832 172.982 184.82C172.725 184.832 172.47 184.843 172.216 184.855Z" fill="#323130"/>
<path fill-rule="evenodd" clip-rule="evenodd" d="M268.759 52.2113C268.748 51.8436 268.736 51.4759 268.725 51.1088C268.737 51.4768 268.748 51.8439 268.759 52.2113Z" fill="#323130"/>
<path fill-rule="evenodd" clip-rule="evenodd" d="M51.1443 185.066C51.4017 185.064 51.6588 185.062 51.9127 185.061C51.654 185.063 51.3995 185.065 51.1443 185.066Z" fill="#323130"/>
<path fill-rule="evenodd" clip-rule="evenodd" d="M268.652 185.063C268.916 185.065 269.181 185.068 269.442 185.071C269.176 185.068 268.914 185.066 268.652 185.063Z" fill="#323130"/>
<path fill-rule="evenodd" clip-rule="evenodd" d="M274.365 185.031C274.62 185.049 274.875 185.068 275.128 185.085C274.871 185.067 274.618 185.049 274.365 185.031Z" fill="#323130"/>
<path fill-rule="evenodd" clip-rule="evenodd" d="M276.671 185.027C276.931 185.034 277.192 185.042 277.448 185.048C277.187 185.04 276.929 185.033 276.671 185.027Z" fill="#323130"/>
<path fill-rule="evenodd" clip-rule="evenodd" d="M288.517 80.1695C288.5 79.8079 288.483 79.4459 288.467 79.0852C288.484 79.4475 288.5 79.8085 288.517 80.1695Z" fill="#323130"/>
<path fill-rule="evenodd" clip-rule="evenodd" d="M113.941 180.286C114.732 180.245 115.523 180.204 116.315 180.162C115.523 180.204 114.732 180.245 113.941 180.286Z" fill="#323130"/>
<path fill-rule="evenodd" clip-rule="evenodd" d="M66.2112 48.7824C66.8979 48.8421 67.5847 48.9019 68.2708 48.961C67.5841 48.9015 66.8976 48.8418 66.2112 48.7824Z" fill="#323130"/>
<path fill-rule="evenodd" clip-rule="evenodd" d="M260.115 78.64C260.136 79.2953 260.158 79.9506 260.179 80.604C260.157 79.9484 260.136 79.2943 260.115 78.64Z" fill="#323130"/>
<path fill-rule="evenodd" clip-rule="evenodd" d="M274.288 181.407C275.005 181.45 275.721 181.493 276.438 181.537C275.717 181.57 274.985 181.775 274.288 181.407Z" fill="#323130"/>
<path fill-rule="evenodd" clip-rule="evenodd" d="M270.045 103.894C270.051 103.269 270.056 102.644 270.061 102.02C270.056 102.646 270.051 103.27 270.045 103.894Z" fill="#323130"/>
<path fill-rule="evenodd" clip-rule="evenodd" d="M268.21 123.534C268.839 123.542 269.468 123.551 270.097 123.559C269.468 123.551 268.839 123.542 268.21 123.534Z" fill="#323130"/>
<path fill-rule="evenodd" clip-rule="evenodd" d="M109.856 112.544C109.841 113.021 109.825 113.497 109.81 113.971C109.826 113.494 109.841 113.019 109.856 112.544Z" fill="#323130"/>
<path fill-rule="evenodd" clip-rule="evenodd" d="M278.679 92.3723C278.653 92.8464 278.628 93.3203 278.603 93.7919C278.629 93.3174 278.654 92.8448 278.679 92.3723Z" fill="#323130"/>
<path fill-rule="evenodd" clip-rule="evenodd" d="M265.259 179.297C265.716 179.266 266.174 179.235 266.631 179.206C266.287 179.481 265.94 179.504 265.259 179.297Z" fill="#323130"/>
<path fill-rule="evenodd" clip-rule="evenodd" d="M262.196 117.327C262.228 117.838 262.259 118.349 262.29 118.859C262.259 118.347 262.228 117.837 262.196 117.327Z" fill="#323130"/>
<path fill-rule="evenodd" clip-rule="evenodd" d="M91.0894 36.6688C91.0941 36.1753 91.0989 35.6817 91.104 35.1901C91.0992 35.6843 91.0944 36.1766 91.0894 36.6688Z" fill="#323130"/>
<path fill-rule="evenodd" clip-rule="evenodd" d="M262.75 123.637L264.456 123.6C263.893 123.872 263.325 123.882 262.75 123.637Z" fill="#323130"/>
<path fill-rule="evenodd" clip-rule="evenodd" d="M278.486 127.279C278.084 127.283 277.682 127.286 277.282 127.29C277.686 127.287 278.086 127.283 278.486 127.279Z" fill="#323130"/>
<path fill-rule="evenodd" clip-rule="evenodd" d="M131.196 179.494C131.753 179.501 132.309 179.508 132.866 179.515C132.305 179.796 131.748 179.836 131.196 179.494Z" fill="#323130"/>
<path fill-rule="evenodd" clip-rule="evenodd" d="M26.313 181.134C26.878 181.084 27.4434 181.033 28.0084 180.983C27.4434 181.033 26.878 181.084 26.313 181.134Z" fill="#323130"/>
<path fill-rule="evenodd" clip-rule="evenodd" d="M260.311 82.8488C260.338 83.3617 260.366 83.8746 260.393 84.386C260.366 83.8724 260.338 83.3607 260.311 82.8488Z" fill="#323130"/>
<path fill-rule="evenodd" clip-rule="evenodd" d="M79.9471 49.9865C80.4235 49.7517 80.9037 49.7123 81.3887 49.9611C80.9078 49.9697 80.4277 49.9783 79.9471 49.9865Z" fill="#323130"/>
<path fill-rule="evenodd" clip-rule="evenodd" d="M244.728 88.7716C244.767 89.2041 244.807 89.637 244.846 90.0682C244.807 89.6351 244.767 89.2032 244.728 88.7716Z" fill="#323130"/>
<path fill-rule="evenodd" clip-rule="evenodd" d="M284.97 78.676C284.725 78.2527 284.734 77.8316 284.982 77.4143C284.978 77.8354 284.974 78.2559 284.97 78.676Z" fill="#323130"/>
<path fill-rule="evenodd" clip-rule="evenodd" d="M260.388 63.9809C260.388 64.409 260.389 64.8374 260.389 65.2642C260.388 64.8352 260.388 64.4081 260.388 63.9809Z" fill="#323130"/>
<path fill-rule="evenodd" clip-rule="evenodd" d="M277.465 123.329C277.955 123.179 278.446 122.966 278.934 123.334C278.444 123.333 277.955 123.331 277.465 123.329Z" fill="#323130"/>
<path fill-rule="evenodd" clip-rule="evenodd" d="M119.01 180.092C119.503 180.046 119.996 180.001 120.49 179.955C119.996 180.001 119.503 180.046 119.01 180.092Z" fill="#323130"/>
<path fill-rule="evenodd" clip-rule="evenodd" d="M51.368 180.093C51.8199 179.895 52.2709 179.791 52.7161 180.109C52.2665 180.103 51.8174 180.098 51.368 180.093Z" fill="#323130"/>
<path fill-rule="evenodd" clip-rule="evenodd" d="M143.804 179.456C144.287 179.245 144.769 179.129 145.246 179.471C144.765 179.466 144.285 179.461 143.804 179.456Z" fill="#323130"/>
<path fill-rule="evenodd" clip-rule="evenodd" d="M36.2329 116.937C36.2691 117.374 36.3057 117.81 36.3416 118.245C36.305 117.808 36.2688 117.373 36.2329 116.937Z" fill="#323130"/>
<path fill-rule="evenodd" clip-rule="evenodd" d="M148.423 91.8047C148.899 91.6318 149.373 91.5415 149.839 91.8304C149.367 91.8215 148.895 91.8133 148.423 91.8047Z" fill="#323130"/>
<path fill-rule="evenodd" clip-rule="evenodd" d="M260.303 104.793C260.33 105.219 260.356 105.646 260.382 106.071C260.356 105.645 260.329 105.219 260.303 104.793Z" fill="#323130"/>
<path fill-rule="evenodd" clip-rule="evenodd" d="M35.9258 66.3103C35.8864 66.6538 35.847 66.9977 35.8079 67.3393C35.8473 66.9951 35.8864 66.6529 35.9258 66.3103Z" fill="#323130"/>
<path fill-rule="evenodd" clip-rule="evenodd" d="M8.3688 165.937C8.34433 166.272 8.32017 166.606 8.29602 166.938C8.32113 166.603 8.34496 166.27 8.3688 165.937Z" fill="#323130"/>
<path fill-rule="evenodd" clip-rule="evenodd" d="M270.256 107.05C270.229 106.704 270.202 106.358 270.176 106.014C270.202 106.361 270.229 106.705 270.256 107.05Z" fill="#323130"/>
<path fill-rule="evenodd" clip-rule="evenodd" d="M235.632 178.81C236.056 178.813 236.479 178.816 236.903 178.819C236.479 178.816 236.055 178.813 235.632 178.81Z" fill="#323130"/>
<path fill-rule="evenodd" clip-rule="evenodd" d="M109.696 115.486C109.775 115.738 109.854 115.99 109.933 116.242C109.405 116.37 109.326 116.118 109.696 115.486Z" fill="#323130"/>
<path fill-rule="evenodd" clip-rule="evenodd" d="M141.461 91.2357C141.891 91.2338 142.321 91.2322 142.751 91.2303C142.322 91.4343 141.892 91.5744 141.461 91.2357Z" fill="#323130"/>
<path fill-rule="evenodd" clip-rule="evenodd" d="M36.4741 119.003C36.4887 119.384 36.5034 119.766 36.5173 120.146C36.5024 119.764 36.4881 119.384 36.4741 119.003Z" fill="#323130"/>
<path fill-rule="evenodd" clip-rule="evenodd" d="M41.0262 180.511C41.4416 180.51 41.8566 180.51 42.272 180.51C41.8563 180.51 41.4416 180.51 41.0262 180.511Z" fill="#323130"/>
<path fill-rule="evenodd" clip-rule="evenodd" d="M245.772 123.024C245.788 123.375 245.803 123.726 245.819 124.076C245.804 123.724 245.788 123.374 245.772 123.024Z" fill="#323130"/>
<path fill-rule="evenodd" clip-rule="evenodd" d="M32.2086 180.939C32.617 180.668 33.0263 180.691 33.4363 180.934C33.0269 180.936 32.6176 180.937 32.2086 180.939Z" fill="#323130"/>
<path fill-rule="evenodd" clip-rule="evenodd" d="M42.9623 61.4044C42.9842 61.7629 43.0065 62.1217 43.0293 62.4779C43.0074 62.1188 42.9848 61.7616 42.9623 61.4044Z" fill="#323130"/>
<path fill-rule="evenodd" clip-rule="evenodd" d="M30.0841 180.976C30.5087 180.977 30.9333 180.979 31.3575 180.981C30.9317 181.271 30.5074 181.285 30.0841 180.976Z" fill="#323130"/>
<path fill-rule="evenodd" clip-rule="evenodd" d="M265.187 55.7772C265.19 55.413 265.193 55.0491 265.197 54.6859C265.193 55.0504 265.19 55.4136 265.187 55.7772Z" fill="#323130"/>
<path fill-rule="evenodd" clip-rule="evenodd" d="M70.266 49.4084C70.6721 49.4614 71.0783 49.5145 71.4841 49.5673C71.078 49.5142 70.6718 49.4614 70.266 49.4084Z" fill="#323130"/>
<path fill-rule="evenodd" clip-rule="evenodd" d="M34.4261 80.8382C34.4316 81.1782 34.437 81.5186 34.4433 81.857C34.4379 81.5164 34.4322 81.1773 34.4261 80.8382Z" fill="#323130"/>
<path fill-rule="evenodd" clip-rule="evenodd" d="M267.921 80.7895C267.899 80.4431 267.876 80.0967 267.854 79.7519C267.876 80.0989 267.899 80.4443 267.921 80.7895Z" fill="#323130"/>
<path fill-rule="evenodd" clip-rule="evenodd" d="M173.194 180.57C173.696 180.615 174.197 180.661 174.698 180.706C174.196 180.66 173.696 180.615 173.194 180.57Z" fill="#323130"/>
<path fill-rule="evenodd" clip-rule="evenodd" d="M171.52 167.596C171.249 167.601 170.978 167.605 170.71 167.61C170.982 167.607 171.251 167.601 171.52 167.596Z" fill="#323130"/>
<path fill-rule="evenodd" clip-rule="evenodd" d="M171.543 180.371C171.963 180.412 172.384 180.454 172.804 180.495C172.384 180.454 171.963 180.412 171.543 180.371Z" fill="#323130"/>
<path fill-rule="evenodd" clip-rule="evenodd" d="M95.9004 152.065C96.4473 155.156 91.6447 158.178 91.264 153.785C91.1248 152.179 92.199 151.049 93.4018 150.067C95.109 148.674 96.0628 150.008 95.9004 152.065Z" fill="#323130"/>
<path fill-rule="evenodd" clip-rule="evenodd" d="M42.9642 114.363C44.0956 114.826 52.7393 117.642 48.2495 119.059C47.0609 119.434 45.2644 119.49 44.2341 118.829C42.9947 118.034 41.7445 115.688 42.9642 114.363Z" fill="#323130"/>
<path fill-rule="evenodd" clip-rule="evenodd" d="M45.0913 72.5138C48.0252 72.1731 50.7284 76.9919 47.1112 76.8355C44.4782 76.7215 40.9373 72.5138 45.0913 72.5138Z" fill="#323130"/>
<path fill-rule="evenodd" clip-rule="evenodd" d="M55.5866 84.3291C58.0365 86.4666 53.4955 91.2504 51.6926 89.399C50.772 88.4532 51.6211 86.4158 52.381 85.6245C53.1608 84.8125 54.5483 84.66 55.5866 84.3291Z" fill="#323130"/>
<path fill-rule="evenodd" clip-rule="evenodd" d="M62.8802 139.743C61.4339 139.973 55.0735 142.051 56.4 138.276C56.9059 136.836 58.317 137.264 59.6069 137.33C61.6859 137.436 62.8802 137.336 62.8802 139.743Z" fill="#323130"/>
<path fill-rule="evenodd" clip-rule="evenodd" d="M58.6905 149.467C60.8556 150.625 57.6907 157.108 55.8961 155.728C53.4062 153.815 56.8117 150.049 58.6905 149.467Z" fill="#323130"/>
<path fill-rule="evenodd" clip-rule="evenodd" d="M68.1335 144.256C69.1864 143.826 74.1494 148.6 72.2601 149.928C71.2918 150.608 69.4571 149.441 68.8734 148.738C67.7789 147.418 67.6797 145.791 68.1335 144.256Z" fill="#323130"/>
<path fill-rule="evenodd" clip-rule="evenodd" d="M39.499 105.235C40.5751 105.412 42.4329 105.467 42.5025 106.98C42.5635 108.309 40.8973 108.739 39.7243 108.843C38.5072 108.951 36.8959 108.608 36.8727 107.078C36.8483 105.427 39.4609 105.526 39.499 105.235Z" fill="#323130"/>
<path fill-rule="evenodd" clip-rule="evenodd" d="M66.0346 171.036C67.1806 171.731 72.5259 174.236 70.2346 176.046C69.3772 176.723 66.7779 175.324 66.1929 174.613C65.4947 173.765 64.8123 171.777 66.0346 171.036Z" fill="#323130"/>
<path fill-rule="evenodd" clip-rule="evenodd" d="M80.8941 152.859C80.7285 150.095 85.3931 148.994 84.4261 152.919C84.1534 154.025 83.8896 155.705 82.5215 155.769C80.9046 155.845 80.8461 153.932 80.8941 152.859Z" fill="#323130"/>
<path fill-rule="evenodd" clip-rule="evenodd" d="M66.4845 104.78C66.5169 106.877 62.4981 108.727 62.4669 105.402C62.4393 102.432 66.6345 101.562 66.4845 104.78Z" fill="#323130"/>
<path fill-rule="evenodd" clip-rule="evenodd" d="M63.8307 93.8559C64.821 94.175 66.137 94.3393 66.2241 95.5975C66.3165 96.929 65.0797 97.5217 63.9668 97.447C63.054 97.3857 61.7034 96.7101 61.5375 95.7198C61.2944 94.2662 62.713 94.1712 63.8307 93.8559Z" fill="#323130"/>
<path fill-rule="evenodd" clip-rule="evenodd" d="M45.4168 132.256C45.4 130.526 48.8684 128.446 49.5072 130.454C49.7115 131.096 48.0768 133.978 47.533 134.194C46.0944 134.765 45.8935 133.434 45.4168 132.256Z" fill="#323130"/>
<path fill-rule="evenodd" clip-rule="evenodd" d="M73.8388 161.062C72.6667 162.111 69.1509 165.058 69.4138 161.102C69.5816 158.575 74.148 158.707 73.8388 161.062Z" fill="#323130"/>
<path fill-rule="evenodd" clip-rule="evenodd" d="M131.12 172.369C131.504 170.705 137.004 173.591 135.169 175.692C134.553 176.397 132.942 175.759 132.323 175.341C131.097 174.514 131.07 173.75 131.12 172.369Z" fill="#323130"/>
<path fill-rule="evenodd" clip-rule="evenodd" d="M100.473 136.764C100.688 136.022 100.926 134.711 101.633 134.238C102.913 133.382 104.028 134.673 104.028 136.034C104.029 138.573 101.138 139.374 100.473 136.764Z" fill="#323130"/>
<path fill-rule="evenodd" clip-rule="evenodd" d="M86.8404 166.452C88.2686 166.779 91.4485 170.25 89.6043 171.667C87.8294 173.03 85.4688 167.489 86.8404 166.452Z" fill="#323130"/>
<path fill-rule="evenodd" clip-rule="evenodd" d="M88.2001 140.174C90.0363 140.32 92.5602 143.294 89.7061 143.766C87.4736 144.136 84.8772 140.902 88.2001 140.174Z" fill="#323130"/>
<path fill-rule="evenodd" clip-rule="evenodd" d="M104.824 153.857C105.284 152.306 109.838 153.968 109.583 155.676C109.447 156.584 107.585 156.797 106.606 156.557C105.165 156.203 104.791 155.258 104.824 153.857Z" fill="#323130"/>
<path fill-rule="evenodd" clip-rule="evenodd" d="M51.1425 67.2236C51.1755 65.2183 55.0288 64.4009 55.311 66.4218C55.5662 68.2476 51.0942 70.1903 51.1425 67.2236Z" fill="#323130"/>
<path fill-rule="evenodd" clip-rule="evenodd" d="M103.551 174.52C103.829 173.511 103.948 172.298 105.208 172.165C106.65 172.013 106.607 173.119 106.438 174.265C105.977 177.383 104.215 177.538 103.551 174.52Z" fill="#323130"/>
<path fill-rule="evenodd" clip-rule="evenodd" d="M42.7002 91.0822C40.6914 91.5354 37.0123 87.6665 39.261 86.8364C40.8455 86.2507 42.7002 89.9149 42.7002 91.0822Z" fill="#323130"/>
<path fill-rule="evenodd" clip-rule="evenodd" d="M68.322 121.134C67.2996 121.616 67.0641 121.908 66.2788 121.118C65.5949 120.43 65.6251 118.513 66.2121 117.797C68.4602 115.056 68.4074 120.025 68.322 121.134Z" fill="#323130"/>
<path fill-rule="evenodd" clip-rule="evenodd" d="M76.6627 115.576C77.7289 115.711 80.897 118.716 79.2473 119.911C77.2258 121.374 76.082 116.79 76.6627 115.576Z" fill="#323130"/>
<path fill-rule="evenodd" clip-rule="evenodd" d="M99.7311 116.367C98.956 119.352 97.0215 117.343 97.1312 115.085C97.3072 111.468 99.3119 114.618 99.7311 116.367Z" fill="#323130"/>
<path fill-rule="evenodd" clip-rule="evenodd" d="M111.493 164.299C112.804 164.842 114.584 169.854 112.711 170.123C110.608 170.424 111.308 165.343 111.493 164.299Z" fill="#323130"/>
<path fill-rule="evenodd" clip-rule="evenodd" d="M95.1186 161.483C96.6189 160.977 97.1687 164.142 96.2967 164.73C94.3781 166.023 94.7827 162.23 95.1186 161.483Z" fill="#323130"/>
<path fill-rule="evenodd" clip-rule="evenodd" d="M80.8941 152.859C80.875 153.28 80.8563 153.7 80.8365 154.117C80.8553 153.697 80.8744 153.278 80.8941 152.859Z" fill="#323130"/>
<path fill-rule="evenodd" clip-rule="evenodd" d="M131.12 172.369C131.104 172.8 131.088 173.23 131.072 173.659C131.087 173.227 131.103 172.798 131.12 172.369Z" fill="#323130"/>
<path fill-rule="evenodd" clip-rule="evenodd" d="M104.824 153.857C104.816 154.223 104.807 154.588 104.797 154.951C104.805 154.585 104.815 154.221 104.824 153.857Z" fill="#323130"/>
<path fill-rule="evenodd" clip-rule="evenodd" d="M270.777 147.567C273.887 147.468 277.357 146.297 280.414 146.669C281.256 146.772 283.193 146.984 281.844 148.232C281.2 148.829 278.113 148.52 277.178 148.718C271.467 149.927 264.984 150.707 259.128 150.607C256.387 150.559 253.625 150.34 250.885 150.195C248.147 150.05 247.878 148.937 250.959 148.583C254.159 148.216 257.442 148.352 260.658 148.349C264.039 148.344 267.403 147.793 270.777 147.567Z" fill="#323130"/>
<path fill-rule="evenodd" clip-rule="evenodd" d="M277.606 140.073C277.306 140.926 277.044 142.882 275.896 143.01C274.289 143.19 274.024 140.431 274.083 139.422C274.154 138.204 274.593 136.181 276.106 136.603C277.385 136.959 277.513 139.099 277.606 140.073Z" fill="#323130"/>
<path fill-rule="evenodd" clip-rule="evenodd" d="M267.878 139.449C268.113 138.536 268.228 136.478 269.519 136.408C270.962 136.331 271.374 138.475 271.365 139.502C271.355 140.478 270.994 142.32 269.846 142.545C268.288 142.851 268.149 140.492 267.878 139.449Z" fill="#323130"/>
<path fill-rule="evenodd" clip-rule="evenodd" d="M251.678 141.086C251.211 142.183 250.902 143.695 249.455 142.946C248.336 142.368 248.18 140.035 248.391 138.967C248.61 137.86 249.073 136.591 250.344 137.089C251.811 137.663 251.663 139.878 251.678 141.086Z" fill="#323130"/>
<path fill-rule="evenodd" clip-rule="evenodd" d="M263.946 140.073C262.567 144.253 260.052 141.425 261.007 138.304C262.006 135.043 263.819 138.211 263.946 140.073Z" fill="#323130"/>
<path fill-rule="evenodd" clip-rule="evenodd" d="M257.228 140.28C256.845 141.016 256.437 142.604 255.405 142.437C254.14 142.231 254.099 139.796 254.238 138.889C254.359 138.095 254.715 136.772 255.775 136.789C257.305 136.814 257.202 139.327 257.228 140.28Z" fill="#323130"/>
<path fill-rule="evenodd" clip-rule="evenodd" d="M284.733 141.083C283.707 143.386 282.295 141.402 282.747 139.766C283.417 137.34 284.675 139.489 284.733 141.083Z" fill="#323130"/>
<path fill-rule="evenodd" clip-rule="evenodd" d="M259.594 148.352C258.473 148.347 257.352 148.343 256.231 148.339C257.353 148.127 258.475 148.045 259.594 148.352Z" fill="#323130"/>
<path fill-rule="evenodd" clip-rule="evenodd" d="M281.872 146.66C280.9 146.666 279.928 146.672 278.956 146.679C279.926 146.388 280.899 146.381 281.872 146.66Z" fill="#323130"/>
<path fill-rule="evenodd" clip-rule="evenodd" d="M270.777 147.567C269.998 147.62 269.22 147.672 268.442 147.724C269.221 147.672 269.999 147.62 270.777 147.567Z" fill="#323130"/>
<path fill-rule="evenodd" clip-rule="evenodd" d="M251.678 141.086C251.671 140.528 251.664 139.969 251.657 139.412C251.945 139.967 251.925 140.525 251.678 141.086Z" fill="#323130"/>
<path fill-rule="evenodd" clip-rule="evenodd" d="M257.778 150.595C258.23 150.599 258.681 150.603 259.128 150.607C258.676 150.603 258.227 150.599 257.778 150.595Z" fill="#323130"/>
<path fill-rule="evenodd" clip-rule="evenodd" d="M250.2 150.195C250.657 150.195 251.115 150.195 251.568 150.195C251.109 150.195 250.655 150.195 250.2 150.195Z" fill="#323130"/>
<path fill-rule="evenodd" clip-rule="evenodd" d="M253.947 148.4C253.312 148.452 252.676 148.504 252.041 148.556C252.677 148.504 253.312 148.452 253.947 148.4Z" fill="#323130"/>
<path fill-rule="evenodd" clip-rule="evenodd" d="M262.541 148.345C261.913 148.346 261.286 148.347 260.658 148.348C261.285 148.084 261.913 148.076 262.541 148.345Z" fill="#323130"/>
<path fill-rule="evenodd" clip-rule="evenodd" d="M257.228 140.28C257.212 139.698 257.197 139.116 257.182 138.534C257.198 139.117 257.213 139.699 257.228 140.28Z" fill="#323130"/>
<path fill-rule="evenodd" clip-rule="evenodd" d="M248.391 138.967C248.388 139.535 248.384 140.103 248.38 140.668C248.383 140.1 248.387 139.534 248.391 138.967Z" fill="#323130"/>
<path fill-rule="evenodd" clip-rule="evenodd" d="M274.343 147.356C273.788 147.406 273.233 147.456 272.679 147.506C273.234 147.456 273.788 147.406 274.343 147.356Z" fill="#323130"/>
<path fill-rule="evenodd" clip-rule="evenodd" d="M284.733 141.083C284.715 140.586 284.697 140.09 284.68 139.595C284.698 140.091 284.715 140.587 284.733 141.083Z" fill="#323130"/>
<path fill-rule="evenodd" clip-rule="evenodd" d="M261.131 150.611C261.517 150.604 261.903 150.597 262.285 150.59C261.898 150.598 261.514 150.605 261.131 150.611Z" fill="#323130"/>
<path fill-rule="evenodd" clip-rule="evenodd" d="M277.606 140.073C277.572 139.717 277.538 139.36 277.504 139.005C277.538 139.362 277.572 139.717 277.606 140.073Z" fill="#323130"/>
<path fill-rule="evenodd" clip-rule="evenodd" d="M263.946 140.073C263.921 139.707 263.896 139.341 263.871 138.976C263.896 139.342 263.921 139.708 263.946 140.073Z" fill="#323130"/>
<path fill-rule="evenodd" clip-rule="evenodd" d="M64.8028 32.4894C63.2841 32.0909 62.9993 29.9565 63.2434 28.6456C63.5202 28.0138 63.797 27.3824 64.0738 26.7506C63.9654 26.517 63.8574 26.2834 63.7493 26.0498C63.8882 24.7488 63.5332 24.1834 65.0284 24.7103C67.806 25.6898 68.25 32.389 64.8028 32.4894Z" fill="#323130"/>
<path fill-rule="evenodd" clip-rule="evenodd" d="M87.2841 28.3627C88.5353 28.2641 90.8079 29.7212 89.5624 31.131C88.7908 32.0043 86.2481 31.5912 85.2108 31.7736C83.8351 32.0154 82.4002 32.3462 83.1445 30.2856C83.7289 28.6674 85.8162 28.3204 87.2841 28.3627Z" fill="#323130"/>
<path fill-rule="evenodd" clip-rule="evenodd" d="M85.9677 38.055C84.6969 37.0358 85.2641 32.3938 87.1982 33.229C89.188 34.0886 87.0282 37.3851 85.9677 38.055Z" fill="#323130"/>
<path fill-rule="evenodd" clip-rule="evenodd" d="M63.2433 28.6456C63.2433 29.134 63.243 29.6228 63.2421 30.109C62.977 29.6196 62.9853 29.1324 63.2433 28.6456Z" fill="#323130"/>
<path fill-rule="evenodd" clip-rule="evenodd" d="M64.8027 32.4894C65.0617 32.4821 65.3211 32.4744 65.5769 32.4678C65.3166 32.476 65.0598 32.4827 64.8027 32.4894Z" fill="#323130"/>
<path fill-rule="evenodd" clip-rule="evenodd" d="M221.725 166.176C221.607 168.288 219.339 166.727 219.5 165.314C219.792 162.751 221.241 165.284 221.725 166.176Z" fill="#323130"/>
</svg>
