<svg id="Layer_1" data-name="Layer 1" xmlns="http://www.w3.org/2000/svg" xmlns:xlink="http://www.w3.org/1999/xlink" viewBox="0 0 324.26 283.46"><defs><linearGradient id="linear-gradient" x1="217" y1="67.91" x2="218.81" y2="-30.26" gradientUnits="userSpaceOnUse"><stop offset="0.01"/><stop offset="0.13" stop-opacity="0.69"/><stop offset="0.25" stop-opacity="0.32"/><stop offset="1" stop-opacity="0"/></linearGradient><linearGradient id="linear-gradient-2" x1="87.31" y1="179.34" x2="83.29" y2="2.26" xlink:href="#linear-gradient"/><linearGradient id="linear-gradient-3" x1="122.74" y1="178.54" x2="118.72" y2="1.46" xlink:href="#linear-gradient"/><linearGradient id="linear-gradient-4" x1="176.07" y1="212.06" x2="165.23" y2="-104.15" xlink:href="#linear-gradient"/><linearGradient id="linear-gradient-5" x1="221.36" y1="210.51" x2="210.52" y2="-105.7" xlink:href="#linear-gradient"/></defs><title>9</title><path d="M354.89,222.55c5.45,20.1-1.24,43-16.64,57-19.26,17.53-47.79,19.8-73.81,18.36a273.81,273.81,0,0,1-41.93-5.32c-9.56-2-19-4.72-28.62-6.46a106.73,106.73,0,0,0-13.81-1.7c-9.24-.48-19.08.92-28.58,1.29-1.79.07-3.56.11-5.31.08-9.64-.1-18.71-1.88-26.21-8.56-.67-.59-1.35-1.24-2-1.92C102.49,259,81.26,251.75,64.47,237.23c-15.37-13.29-24.71-33-26.58-53.19s3.48-40.85,13.81-58.34c4.47-7.58,10-14.73,17.24-19.71,11-7.55,24.93-9.42,36.74-15.64C127,79.15,138.6,55.65,156.85,40c16.9-14.55,39.08-21.89,61.27-24.21s44.55.06,66.66,3c15.21,2,30.65,4.37,44.55,10.86S355.64,47.36,360,62.07c5.46,18.45-2.43,38-10.77,55.32s-17.54,35.83-14.7,54.86C337.17,190.21,350.14,205,354.89,222.55Z" transform="translate(-37.52 -14.81)" fill="#35b8be" opacity="0.18" style="isolation:isolate"/><path d="M292.67,179.51a5.08,5.08,0,0,0,0,2.89c.67,1.67,2.77,2.12,4.21,3.19,3.17,2.35,2.5,7.69-.43,10.33s-7.18,3.19-11.12,3.13a49.36,49.36,0,0,1-17.11-3.35c-4.07-1.59-9.13-3.56-12.35-.62-1.44,1.32-2,3.3-2.56,5.18-2.52,8.87-5.27,17.93-10.89,25.24-5,6.52-12,11.21-18.22,16.56a104.38,104.38,0,0,0-30,43.44c-.07.2-.16.41-.26.63a106.73,106.73,0,0,0-13.81-1.7c-9.24-.48-19.08.92-28.58,1.29-1.79.07-3.56.11-5.31.08.09-.39.19-.78.29-1.16q5-19.8,10.09-39.61c1.38-5.44,2.78-11,2.45-16.57a45.67,45.67,0,0,0-3.25-13.26,140.57,140.57,0,0,0-22.84-39.84l27.51-.31c3.26,0,6.67,0,9.57,1.43,4.38,2.22,6.54,7.16,9.92,10.71,1.15,1.21,2.65,2.33,4.32,2.21a6,6,0,0,0,3.39-1.86c8.32-7.75,10.37-20,11-31.38s.35-23.27,5.59-33.36a8.63,8.63,0,0,1,3.5-4,10,10,0,0,1,4.79-.62A197,197,0,0,0,240.71,117c2.55-.29,5.27-.7,7.19-2.4,1.66-1.46,2.46-3.64,3.16-5.73,1.43-4.24,2.71-8.54,3.84-12.87,1-4,2-8.15,4.3-11.59,5.27-7.89,17.71-9.66,25-3.56a66.5,66.5,0,0,1-6.51,23.8l19.55,6.52a3.9,3.9,0,0,1,3.34,4.91A423.18,423.18,0,0,1,292.67,179.51Z" transform="translate(-37.52 -14.81)" fill="#35b8be" opacity="0.18" style="isolation:isolate"/><polygon points="96.57 112.48 104.4 112.48 104.4 130.55 121.42 130.55 121.42 103.87 140.84 103.87 140.84 73.03 151.38 73.03 151.38 116.37 162.13 116.37 162.13 75.22 244.14 75.22 244.14 150.67 85.88 150.67 96.57 112.48" fill="#35b8be"/><rect x="206.67" y="19.09" width="21.43" height="56.13" fill="#35b8be"/><rect x="206.67" y="19.09" width="21.43" height="56.13" fill="url(#linear-gradient)"/><path d="M305.69,106.66A7.57,7.57,0,0,1,291,109.18a7.49,7.49,0,0,1-.43-2.52,7.58,7.58,0,0,1,15.15,0Z" transform="translate(-37.52 -14.81)" fill="#35b8be" opacity="0.82" style="isolation:isolate"/><path d="M303.4,103.38a7.57,7.57,0,0,1-12.43,5.8,7.49,7.49,0,0,1-.43-2.52A7.58,7.58,0,0,1,303,100.85,7.55,7.55,0,0,1,303.4,103.38Z" transform="translate(-37.52 -14.81)" fill="#fff" opacity="0.55" style="isolation:isolate"/><path d="M297,82.07a3.79,3.79,0,1,1-1.36-2.91A3.79,3.79,0,0,1,297,82.07Z" transform="translate(-37.52 -14.81)" fill="#35b8be" opacity="0.82" style="isolation:isolate"/><path d="M295.83,80.42a3.79,3.79,0,0,1-6.22,2.91,3.79,3.79,0,0,1,6-4.17A3.79,3.79,0,0,1,295.83,80.42Z" transform="translate(-37.52 -14.81)" fill="#fff" opacity="0.55" style="isolation:isolate"/><path d="M331.32,65.75A3.79,3.79,0,0,1,324,67a3.79,3.79,0,1,1,7.36-1.26Z" transform="translate(-37.52 -14.81)" fill="#35b8be" opacity="0.82" style="isolation:isolate"/><path d="M330.18,64.11a3.79,3.79,0,0,1-3.79,3.79A3.74,3.74,0,0,1,324,67a3.79,3.79,0,0,1,6-4.16A3.75,3.75,0,0,1,330.18,64.11Z" transform="translate(-37.52 -14.81)" fill="#fff" opacity="0.55" style="isolation:isolate"/><g opacity="0.82" style="isolation:isolate"><polygon points="267.55 89.55 266.77 89.27 274.47 67.64 258.65 66.85 258.69 66.01 275.63 66.86 267.55 89.55" fill="#35b8be"/></g><polygon points="286.05 67.67 275.05 67.67 275.05 66.84 285.41 66.84 289.04 53.17 289.85 53.39 286.05 67.67" fill="#35b8be"/><path d="M275.37,223.49a6.68,6.68,0,0,1-8-10.45,6.58,6.58,0,0,1,1.78-1.38,6.7,6.7,0,0,1,9,2.79,6.68,6.68,0,0,1-2.79,9Z" transform="translate(-37.52 -14.81)" fill="#35b8be" opacity="0.82" style="isolation:isolate"/><path d="M277,220.35a6.68,6.68,0,0,1-9-2.79,6.59,6.59,0,0,1-.62-4.52,6.58,6.58,0,0,1,1.78-1.38,6.7,6.7,0,0,1,9,2.79,6.61,6.61,0,0,1,.63,4.52A6.63,6.63,0,0,1,277,220.35Z" transform="translate(-37.52 -14.81)" fill="#fff" opacity="0.55" style="isolation:isolate"/><path d="M291,206.54a3.36,3.36,0,1,1,1.7-2.26A3.35,3.35,0,0,1,291,206.54Z" transform="translate(-37.52 -14.81)" fill="#35b8be" opacity="0.82" style="isolation:isolate"/><path d="M291.79,205a3.34,3.34,0,0,1-4.52-1.4,3.27,3.27,0,0,1-.31-2.26,3.33,3.33,0,0,1,5.41.71,3.33,3.33,0,0,1,.31,2.26A3.59,3.59,0,0,1,291.79,205Z" transform="translate(-37.52 -14.81)" fill="#fff" opacity="0.55" style="isolation:isolate"/><path d="M317.88,226.62a3.35,3.35,0,1,1,1.39-4.52,3.27,3.27,0,0,1,.32,2.26A3.37,3.37,0,0,1,317.88,226.62Z" transform="translate(-37.52 -14.81)" fill="#35b8be" opacity="0.82" style="isolation:isolate"/><path d="M318.69,225.05a3,3,0,1,1,.58-3,3.27,3.27,0,0,1,.32,2.26A3.47,3.47,0,0,1,318.69,225.05Z" transform="translate(-37.52 -14.81)" fill="#fff" opacity="0.55" style="isolation:isolate"/><g opacity="0.82" style="isolation:isolate"><polygon points="239.39 207.25 239.29 206.52 259.35 203.61 253.44 190.94 254.11 190.63 260.43 204.2 239.39 207.25" fill="#35b8be"/></g><polygon points="264.1 212.66 259.56 204.08 260.22 203.73 264.49 211.81 276.65 209.01 276.82 209.73 264.1 212.66" fill="#35b8be"/><path d="M52.6,170.64a7.79,7.79,0,0,1-9-12.41,7.39,7.39,0,0,1,2.13-1.55,7.79,7.79,0,1,1,6.9,14Z" transform="translate(-37.52 -14.81)" fill="#35b8be" opacity="0.82" style="isolation:isolate"/><path d="M54.59,167a7.78,7.78,0,0,1-10.43-3.53,7.68,7.68,0,0,1-.59-5.28,7.39,7.39,0,0,1,2.13-1.55,7.79,7.79,0,0,1,11,8.81A7.78,7.78,0,0,1,54.59,167Z" transform="translate(-37.52 -14.81)" fill="#fff" opacity="0.55" style="isolation:isolate"/><path d="M71.29,151.4a3.89,3.89,0,0,1-4.51-6.21,3.75,3.75,0,0,1,1.06-.77,3.88,3.88,0,0,1,5.21,1.76,3.82,3.82,0,0,1,.3,2.64A3.88,3.88,0,0,1,71.29,151.4Z" transform="translate(-37.52 -14.81)" fill="#35b8be" opacity="0.82" style="isolation:isolate"/><path d="M72.28,149.6a3.89,3.89,0,0,1-5.21-1.77,3.81,3.81,0,0,1-.29-2.64,3.75,3.75,0,0,1,1.06-.77,3.88,3.88,0,0,1,5.21,1.76,3.82,3.82,0,0,1,.3,2.64A4,4,0,0,1,72.28,149.6Z" transform="translate(-37.52 -14.81)" fill="#fff" opacity="0.55" style="isolation:isolate"/><path d="M102,175.61A3.88,3.88,0,1,1,104,173,3.89,3.89,0,0,1,102,175.61Z" transform="translate(-37.52 -14.81)" fill="#35b8be" opacity="0.82" style="isolation:isolate"/><path d="M103,173.81a3.9,3.9,0,0,1-5.51-4.41A3.9,3.9,0,0,1,104,173,3.8,3.8,0,0,1,103,173.81Z" transform="translate(-37.52 -14.81)" fill="#fff" opacity="0.55" style="isolation:isolate"/><g opacity="0.82" style="isolation:isolate"><polygon points="16.92 154.22 16.82 153.37 40.26 150.61 33.78 135.67 34.57 135.33 41.5 151.32 16.92 154.22" fill="#35b8be"/></g><polygon points="45.51 161.29 40.49 151.16 41.26 150.78 45.98 160.32 60.23 157.43 60.4 158.28 45.51 161.29" fill="#35b8be"/><path d="M246.78,183.16c-1.07,1.89-2.79,3.3-4.32,4.83-3.85,3.88-6.58,8.72-9.3,13.45q-9,15.66-18.51,31c-3.33,5.36-6.74,10.72-11.07,15.31-11.52,12.21-28.46,17.83-41.1,28.87-3.58,3.13-6.89,6.74-11,9.11-11.58.47-22.65-.6-31.52-8.48.8-3.27,4-5.52,6.36-7.69a30.61,30.61,0,0,0,7.47-10.37c2.8-6.57,3.09-13.89,4.54-20.88,2.16-10.45,6.91-20.2,9.43-30.57a27,27,0,0,0,.89-10.14c-1.06-7.31-7-14-5.33-21.19a3.56,3.56,0,0,1,1-1.95c1-.86,2.44-.7,3.7-.41,6.66,1.49,13.45,5.31,15.68,11.76,1.69,4.88.47,10.39,2,15.33,1.42,4.57,5,7.64,9.39,9.3,5.6,2.14,10.57,1,16.23-.64,3.68-1.09,7.37-2.18,10.93-3.61a62.16,62.16,0,0,0,25.3-18.74,46.35,46.35,0,0,1,5.67-6.5,16.79,16.79,0,0,1,9.6-3.87c1.79-.13,3.71-.47,4.58,1.21C248.16,179.71,247.52,181.88,246.78,183.16Z" transform="translate(-37.52 -14.81)" fill="#ffbbab"/><path d="M190.84,211a47.77,47.77,0,0,1-13,1.25,21.09,21.09,0,0,1-12.07-4.47,58.41,58.41,0,0,1-4.6,33.61,23.62,23.62,0,0,0-2.1,5.45,6.34,6.34,0,0,0,1.25,5.49c2,2.14,5.43,1.88,8.28,1.22a30.53,30.53,0,0,0,7.4-2.59,43,43,0,0,0,7-4.95,73.54,73.54,0,0,0,7.86-7.1c2.63-2.89,4.77-6.18,7.23-9.21,1.84-2.26,3.85-4.38,5.61-6.7,2-2.67,8.85-11.93,4.81-14.79-2-1.43-5-.48-7.07.13C197.93,209.31,194.41,210.22,190.84,211Z" transform="translate(-37.52 -14.81)" fill="#f4a190"/><path d="M229,201.6a86,86,0,0,0,3.47-17.26c.19-2,.21-4.36-1.27-5.77-1.24-1.17-3.12-1.29-4.83-1.34a3.67,3.67,0,0,0-2.16.39,3.44,3.44,0,0,0-1.09,1.57,38,38,0,0,0-3.07,12.07l0-11.47a5.39,5.39,0,0,0-.28-2.12c-.93-2.21-4.39-2.08-6-.35s-2,4.29-2.34,6.65c-1.64,10.92-5.37,21.7-12.12,30.43a99.54,99.54,0,0,1-6.61,7.48L187.88,227c-2.66,2.81-5.43,5.7-9,7.13-7.65,3-14.46,10.87-16.56,18.84-.73,2.79-.86,6.16,1.22,8.16,1.51,1.44,3.76,1.75,5.85,1.74,11.85-.07,22.29-8.07,29.72-17.31,3-3.67,5.6-7.59,8.59-11.24s6.26-6.91,9.11-10.6C222.29,216.59,226.33,210.2,229,201.6Z" transform="translate(-37.52 -14.81)" fill="#ffbbab"/><path d="M298.79,171.76a6.28,6.28,0,0,1-6.28,6.28H103.89a6.29,6.29,0,0,1-5.44-9.41,6.06,6.06,0,0,1,1-1.31,6.26,6.26,0,0,1,4.44-1.84H292.51a6.26,6.26,0,0,1,5.43,3.15A6.17,6.17,0,0,1,298.79,171.76Z" transform="translate(-37.52 -14.81)" fill="#35b8be"/><path d="M298.79,171.76a6.28,6.28,0,0,1-6.28,6.28H103.89a6.29,6.29,0,0,1-5.44-9.41,6.06,6.06,0,0,1,1-1.31,6.26,6.26,0,0,1,4.44-1.84H292.51a6.26,6.26,0,0,1,5.43,3.15A6.17,6.17,0,0,1,298.79,171.76Z" transform="translate(-37.52 -14.81)" fill="#020202" opacity="0.1"/><path d="M297.94,168.63a6.27,6.27,0,0,1-5.43,3.13H103.89a6.29,6.29,0,0,1-5.44-3.13,6.06,6.06,0,0,1,1-1.31,6.26,6.26,0,0,1,4.44-1.84H292.51A6.26,6.26,0,0,1,297.94,168.63Z" transform="translate(-37.52 -14.81)" fill="#35b8be"/><polygon points="73.38 150.67 73.38 88.09 98.38 82.07 98.38 150.67 73.38 150.67" fill="#35b8be"/><polygon points="108.92 150.67 108.92 88.09 133.92 90.2 133.92 150.67 108.92 150.67" fill="#35b8be"/><polygon points="73.38 150.67 73.38 88.09 98.38 82.07 98.38 150.67 73.38 150.67" fill="url(#linear-gradient-2)"/><polygon points="108.92 150.67 108.92 88.09 133.92 90.2 133.92 150.67 108.92 150.67" fill="url(#linear-gradient-3)"/><rect x="154.49" y="57.07" width="35.74" height="93.6" fill="#35b8be"/><rect x="195.96" y="38.42" width="42.86" height="112.25" fill="#35b8be"/><rect x="154.49" y="57.07" width="35.74" height="93.6" fill="url(#linear-gradient-4)"/><rect x="195.96" y="38.42" width="42.86" height="112.25" fill="url(#linear-gradient-5)"/><polygon points="238.81 38.42 201.07 41.41 201.07 150.97 195.96 150.97 195.96 38.42 238.81 38.42" fill="#fff" opacity="0.34"/><polygon points="190.24 57.07 158.75 59.57 158.75 150.97 154.48 150.97 154.48 57.07 190.24 57.07" fill="#fff" opacity="0.34"/><polygon points="133.92 90.2 111.78 89.76 111.78 150.97 108.92 150.97 108.92 88.09 133.92 90.2" fill="#fff" opacity="0.34"/><rect x="165.01" y="67.26" width="2.7" height="83.42" fill="#fff" opacity="0.34"/><rect x="173.3" y="67.26" width="2.7" height="83.42" fill="#fff" opacity="0.34"/><rect x="181.58" y="67.26" width="2.7" height="83.42" fill="#fff" opacity="0.34"/><rect x="208.44" y="47.15" width="2.7" height="103.52" fill="#fff" opacity="0.34"/><rect x="216.73" y="47.15" width="2.7" height="103.52" fill="#fff" opacity="0.34"/><rect x="225.01" y="47.15" width="2.7" height="103.52" fill="#fff" opacity="0.34"/></svg>